<?xml version="1.0" encoding="UTF-8"?>
<svg viewBox="105.26 98.07 427.49 689.29" id="Layer_1" data-name="Layer 1" xmlns="http://www.w3.org/2000/svg">
  <defs>
    <style>
      .cls-1 {
        fill: #010101;
      }
    </style>
  </defs>
  <path class="cls-1" d="M315.54,316.19l5.13-.42,4.98-.39,6.19-.41,8.65-.42c3.93-.19,7.58-.18,11.55,0l5.98.27c21.13.96,43.05,7.77,55.78,25.39,5.02,6.94,7.38,15.06,5.93,23.49-1.42,8.2-5.26,15.7-12.22,20.41-7.92,5.36-16.39,9.41-25.43,12.48-5.91,2.01-11.73,2.66-17.84,3.29l-11.67.32-3.44-.09c-4.56-.11-8.64-.27-13.16-1.44-12.96-3.34-24.45-10.64-33.19-20.77l-3.97-4.35-8.34-8.73c3.53,1.16,6.67,1.61,10.18,1.98l6.81.71,4.61.17,14.26.33c1.31.03,2.16.08,3.48-.07,3.36-.38,6.78.4,10.07-.8.76-.28,1.5-.87,2.14-.46-6.36,7.33-12.58,14.2-18.15,22.44l13.6-15.65,3.34-3.79c.77-.88,1.6-2.85,3.02-2.97l4.94-.41,6.66-.12c-1.74,4.37-1.95,8.79-2.37,13.38-.32,3.53-.25,7.29,1.65,10.36-1.29-7.85-.74-16.6,1.81-23.8,6.41.3,12.42-.12,18.59-1.29,3.06,3.65,6.36,6.68,10.33,9.15,2.16,1.35,4.36,2.85,7.21,2.65-4.33-1.54-7.89-3.81-11.3-6.79-1.86-1.63-3.73-3.13-5.01-5.35,3.7-1.36,6.62-2.68,7.59-6.51l9.15-.24c4.08-.78,8.24-1.69,11.13-4.83-3.77,1.86-7.01,3.61-11.05,3.66l-9.01.13c.73-4.29-1.95-6.6-5.78-8.8l4.01-4.2c2.64-3.52,4.69-7.84,3.78-12.35-.92,6.19-3.79,12.67-9.43,15.77-5.45-1.58-11.36-1.76-16.52,1.92,1.99-7.34.49-18.05-3.14-23.75-.95-1.49-1.99-3.08-4.04-3.19,4.76,3.83,5.7,10.31,6.71,16.57.42,2.58-.05,5.13-.19,7.62-.14,2.44-1.07,3.43-2.98,4.69l-12.34,8.17c.04-1.59-.09-2.99-.44-4.55-1.87-8.33-5.46-21.55-12.09-26.42l4.91,8.01,3.23,8.77c1.79,4.86,2.93,9.7,3.5,14.94-1.39,1.06-2.61,2.62-4.29,3.15l-10.05,3.19c-1.56.5-3.08.65-4.63-.19.9-3.88.62-7.67-.8-11.41-2.61-6.87-6.07-13.67-12.11-18.14,5.8,6.82,10.38,14.22,12.11,23.02.46,2.32.29,4.45-.48,6.67l-9.01-.05c-1.63,0-3.18-.59-4.99-.34.97-6.21.64-12.66-2.96-18.14,1.66,6.22,3.19,12.08,1.51,18.3-1.94-.68-3.7-.47-5.43-.69l-6.62-.82c.72-1.78,1.19-3.69,1.19-5.69l.02-7.89c-.1-.38-.42-.74-.86-.77.15,4.78-.06,9.32-1.25,14.15l-12.71-4c.97-2.09,1.39-4.37,1.72-6.77l1-7.34c-2.83,2.53-1.74,8.69-4.03,13.56l-7.06-1.5c.63-1.52.58-2.64.37-3.93-.57-3.52-.93-6.98-2.6-10.17-.39,2.35.6,4.22.73,6.37.17,2.77,1.28,4.91.6,8.06-1.63-1.18-3.6.28-5.27.16-5.07-.36-9.35-3.47-13.3-6.33-.3-.22-.59-.32-.68-.45-.14-.22.16-.86.79-.69,4.23-4.27,7.41-9.77,8.26-15.68-1.87,2.1-1.74,4.79-3.12,6.81l-5.37,7.84c-.32.46-.79.7-1.19.77-.68.11-1.02-.32-1.56-.78-5.76-4.95-12.34-8.17-19.74-10.55.58-.47,1.34-.32,2.2-.31l-.94-3.21c9.48-.18,23.02-1.4,27.8-9.71-3.47,3.07-6.67,5.46-11.07,6.57-5.75,1.44-11.47,2.25-17.36,1.8l-2.69-11.6c4.67,1.12,9.08.48,13.45-.97,1.1-.37,2.26-.64,2.71-1.96-2.49,1.21-4.83,2.08-7.54,2.09l-8.82.04-.53-4.5c-.15-1.24.29-2.49-.42-3.71,4.03.24,7.57,0,11.59-.94-1.51-.83-2.97-.38-4.62-.36l-7,.11.2-11.82c.04-2.5.29-4.94,1.55-7.3,2.41.88,4.31,2.48,6.11,4.25l5.98,5.92c1.66,1.65,2.99,3.24,4.78,4.75,5.94,5.02,14.14,10.38,20.63,5.41,1.23-.94,3.37-1.24,4.36-2.65,3.01-4.28,3.75-9.83,2.39-14.93-1.09-4.09-1.39-7.92-.57-12.14,1.04-5.38,1.96-14.01,1.36-19.05-.38-3.16-.11-6.28-1.4-9.57,5.15,2.25,14.21,5.97,16.63,2.41.91-1.34,0-3.38-1.14-4.17l-5.32-3.74c-.48.13-.82-.3-.4-.61l2.23.54,12.14-.21c3.88-.07,11.77-2.93,11.4-7.84-.31-4.17-9.71-6.61-14.27-6.62l-11.56-.02-6.13.94c6.45-4.41,12.59-8.68,18.44-13.79,4.28-3.74,10.89-9.94,7.74-13.94-2.55-3.23-9.05-.41-13.53,2.01-7.46,4.03-13.41,9.56-19.58,15.64,1.85-3.45,3.1-6.78,4.62-10.09l7.43-5.66c2.25-1.71,3.94-3.77,5.56-6.19-.67-1.15-1.76,1.87-5.66,4.79l-6.56,4.91c.59-4.05,1.19-6.87-1.5-9.09,2.55-3.48,2.81-8.77-.3-12.01.92,3.59,2.24,8.53-.66,11.34-2.78,1.08-6.11,1.82-7.8,5.08-.84,1.63-3.1,3.04-2.26,5.56,2.39-4.04,7.02-10.26,10.6-8.22,2.12,1.21.33,7.49-1.28,11.28-2.49,5.83-5.62,11.09-9.34,16.26l-4.85,5.21c3.33-.9,4.84-3.76,7.07-5.96l10.76-10.62c5.2-5.13,21.55-16.97,25.81-13.46,4.48,3.7-13.64,17.53-19.05,21.44l-11.66,8.44c4.58-.56,8.21-2.24,12.46-2.22l11.23.05c6.7.03,15.83,3.77,11.96,7.46-6.34,6.03-21.04,4.71-30.11,2.82-.24-.05-.37.5-.21.8.65,1.17,13.55,5.3,12.63,8.88-.81,3.17-11-.52-15.85-2.54-1.22-5.81-3.32-4.49-2.62-3.68.97,1.11.77,2.47,1.18,3.49,1.1,2.77,1.27,5.43,1.56,8.37.75,7.55-.24,14.91-1.4,22.42l-.33,3.77c-.26,2.98.95,5.8,1.37,8.69l.53,3.63c.54,3.69-1.13,7.2-2.61,10.33-1.5-1.08.22-3.35-1.42-4.18l-.03,3.77c0,.76-.44,1.1-.94,1.37-1.13.62-4.03-1.54-6.78-1.23,1.29,1.35,2.78,1.05,4.12,1.83.52-.22.77.38.42.47-3.33,2.16-9.38.35-12.93-2.05-3.99-2.7-7.62-5.76-10.71-9.49-2.71-3.27-6.02-5.81-9.47-8.23-2.07-1.46-7.15-.96-15.92-8.89-1.64-1.49-2.98-3.33-4.3-5.17-1.29-1.8.86-7.81-.29-12.84.03-.52-.28-.84-.67-.51.29,3.56-.25,7.74-.96,11.12-5.38,3.66-12.53,5.92-17.76,2.16-2.27-1.6-2.36-4.49-.57-6.63,4.52-2.02,9.18-3.4,14.1-4.82.38-.07.34-.24.2-.42-.34-.42-.41-.23-.82-.16-5.37,1-10.36,2.55-15.25,4.96-4.07,2.01-11.17,2.34-10.57-1.04.29-1.64,1.27-3.07,2.6-4.09,3.24-2.45,6.76-4.89,10.76-5.98l12.71-1.99c-1.33-1.07-2.81-.63-4.29-.48-4.26.43-8.15,1.17-12.3,2.16l-3.73.36-14.63-.09c-4.58-.03-15.35-1.41-14.56-4.3.43-1.58,2.26-2.14,3.67-2.47l10.69-2.56c8.78-2.1,17.36-3.87,26.43-4.53,2.62-.19,5.32-1.03,7.76.08l4.8,2.18c1.03.47,1.64.28,2.59.57l3.92,1.21c2.87.88,5.68-.7,6.31-3.82.29-1.45.34-3.14.03-4.68l-2.59-12.91c-.48-2.41-1.69-2.86-3.31-4.34-6.7-6.13-13-13.37-16.79-21.77-1.33-4.47.83-9.55,1.65-13.9l6.46,2.45c2.11.8,4.04,2.35,6.7,2.08-4-2.6-8.14-4.14-12.33-6-1.99-.88-3.14-2.96-3.76-4.9-5.04-15.7-2.64-33.48,5.25-47.91,2.59-4.73,5.82-8.81,9.63-12.63.54-.55,1.35-.79,1.98-.72.59.06,1.25,1.35,1.01,2.14-1.46,4.79-2.48,9.54-1.86,14.56.69,5.57,1.28,11.12,4.44,15.77,1.04,1.53,2.11,2.67,3.65,2.99s4.22-.19,4.83-1.49c.28-11.34,4.26-22.37,12.94-29.36,8.04-6.48,16.88-8.31,14.58-3.14-1.91,4.3-3.5,8.61-3.04,13.46,3.69-3.08,6.49-6.69,9.04-10.74,3.71-5.89,9.83-8.94,16.68-9.35,4.74-.29,8.5,2.36,10.98,6.47,2.33,3.86-1.21,2.37-7.56,5.21-1.12.5-1.76,2.77-.62,3.2,2.19.81,4.6.21,6.73-.34l10.4-2.64c5.27-.61,9.99.9,13.74,4.42l4.02,3.78,3.37,3.26c6.12,5.91,13.47,2.2,19.77,5.41,7.48,3.81,10.3,8.83,12.3,16.91,2.48,9.99,7.85,11.76,10.25,15.81.43.72-.12,1.33-.78,1.61-1.59.67-6.89-5.31-17.6-6.3l-.69-.4c-.12-.07-.38.46-.11.71,3.78,3.39,6.27,7.68,9.57,11.48l2.5,2.88c5.06,5.83,7.7,9.81,4.74,17.85l-2.07,3.41,1.64,9.4.02,7c.01,5.37-6.56,6.25-8.29,8.2-2.17,2.44-2.94,5.82-3.41,8.96l-1.22,8.29c-.15,1.01-.86,1.51-1.7,1.51-2.64,0-4.34-10.44-5.03-15.49l-.25-9.08c-4.37,5.71-5.89,10.58-5.1,17.76.35,3.17,3.07,5.47,3.52,7.88-2.94,6.36-3.92,7.87-10.25,9.91-1.74.56-2.65,1.38-3.02,3.27l-1.14,5.79c-.21,2.41.36,4.68,2.35,5.86.73,3.34-.11,6.19-2.99,8.15-.8-.11-.48.89.07.41,5.67-.82,9.78-4.17,13.11-8.45l10.46-13.44c4.43-5.69,10.56-10.99,17.85-10.16,7.81.89,14.98-3.38,16.69-11.03l1.2-5.4c.12-.52.94-1.76,1.47-1.72,3.66.67,5.38,3.88,5.06,7.42-.45,5.01-2.71,9.23-6.09,13.04-1.31,1.48-3.26,2.35-4.31,4.42,5.97-2.24,10.99-5.6,16.02-9.32l18.95-14.01c7.29-5.39,15.36-5.21,21.79,1.06l11.46,11.17c2.63,2.56,8.39,6,11.77,5.96,4.43-.05,11.05-5.86,15.88-3.01,4.54,2.68,6.67,11.62,17.94,12.65,1.96.18,3.61.65,5.74.13,1.44-.35,4.62-.7,5.57.71,1.53,2.26-.57,4.88-1.97,6.62-2.9,3.63-7.08,5.43-11.6,6.26-4.25.78-8.42-.36-11.76-3.11l-7.25-5.97c-1.28-1.06-2.94-2.87-4.71-2.63l-8.62,1.17c-1.52.21-2.96-.17-4.45.81,4.22,5.87,9.17,10.81,15.41,14.14,9.16,4.89,18.17,1.34,22.84,7.11,4.34,5.36.85,10.19,1.78,14.02.44,1.8,1.63,2.66,3.4,2.9,5.95.81,12.94,2.05,15.95,6.98.87,1.43.18,2.73-.75,3.63-1.5,1.46-3.03,2.33-5.15,2.06l-4.59-.6c.84,3.96,3.71,5.79,5.5,10.3,2.09,5.22-5.01,6.65-1.45,10.97l2.77,3.37c7.77,9.45,4.81,22.59-.13,23.54-2.73.53-4.54-3.51-5.65-7.02l-2.07-6.58-1.69-2.84c-.27-.45-2.16-1.83-2.34-1.24-.67,1.77-2.08,4.21-1.35,6.19l4.67,12.58c2.35,6.33-.81,12.4-6.76,15.3-3.74,1.82-7.42,3.91-10.44,6.82l-6.59,7.92-.17,6.36c-.16,6-1.31,11.42-4.29,16.77-3.74,6.7-8.22,13.05-14.01,18.08-3.07,2.66-5.76,5.17-8.88,5-.37-.02-.49-1.41-.16-1.64,4.52-3.25,7.64-7.55,10.14-12.53,3.78-7.53,6.14-15.3,6.29-23.83.01-.76-.09-1.39-.69-1.58-.56-.18-1.3-.11-1.64.5-2.82,5.14-5.73,10.04-9.28,14.6-4.23,5.43-9.44,9.01-15.94,11.01-4.9,1.5-9.71,2.79-14.97,2.29-1.03-.1-1.9.5-2.55,1.15l-7.27,7.19c-8.25,8.17-30.78,11.27-30.65,6.34.03-1.02.75-1.78,1.85-2.17,4.27-1.52,7.98-3.82,11.44-6.67l2.2-2.38,4.08-4.21c.42-.06.29-.54-.05-.43-6.64,1.84-13.21,2.55-20.03,3.11l-15.45.08-4.5-.44-7.61-1.04c23.82-2.36,46.93-5.79,68.65-16.92,9.95-5.1,18.92-11.16,27.13-18.62l3.46-3.15,2.99-2.9c4.15-4.74,8.96-9.15,11.74-14.94l3.64-7.57c4.95-10.3,6.75-21.63,7.73-33.02l-.02-10.94c0-5.73-2.05-10.95-4.44-16.16-2.85-6.21-6.78-11.6-11.26-16.76l-7.82-7.83c-6.41-5.68-13.18-10.46-21.02-14.03-13.28-6.05-27.87-8.01-42.19-4.99-9.33,1.97-17.96,5.37-26.08,10.18l-13.49,7.99c-8.95,5.3-18.44,8.85-28.67,10.94-5.9,1.2-11.98.27-16.9-3.14,0-1.18-.85-2.03-1.23-2.92-2.74-6.37,2.47-17.49,6.33-23.95l12.02-20.15c4.3-7.22,8.76-13.95,12.18-21.62,2.98-6.69,5.27-13.32,6.31-20.56,1.46-10.12-2.28-19.46-7.62-27.92-12.28-19.48-31.46-27.84-53.89-30.71l-6.18-.44c-7.21-.51-12.87.11-19.91,1.61-2.16.46-4.11.87-5.81,2.9l-4.75-7.79-2.95-4.06c-1.79-2.46-4.68-4.4-5.6-2.72l5.72,17.85c.19.59.3.9-.23,1.21-11.11,6.61-18.14,21.66-16.93,34.42.94,9.99,4.86,19.49,11.11,27.29,2.03,2.54,4.26,4.94,7.65,5.35.81-.22.85-1.04.13-.95-1.64-.03-2.62-1.05-3.6-1.93-6.87-6.21-12.67-19.71-13.45-28.97l-.35-4.15.36-4.14c.38-4.37,1.88-8.36,3.78-12.22,1.49-3.02,2.98-5.89,5.2-8.45l2.67-3.08c1.02-1.17,2.91-1.18,3.97-2.83,2.24,8.23,3.11,16.05,3.51,24.29l-.04,15.71-.37,9.1-.4,8.62c-.34,7.42-1.27,15.67,3.6,21.19,1.06,1.2,3.78,3.65,5.61,2.4,4.8-3.29,7.27-9.5,7.29-15.29l.09-22.89-.42-5-.4-4.54-.49-4.43c-1.29-11.69-4.57-22.68-10.42-33.07,1.9-1.67,4.06-2.27,6.36-2.57l9.19-1.21c3.42-.45,6.43-.25,9.86-.03,19.13,1.24,39.3,7.21,52.18,21.7,5.18,5.82,9.19,12.14,12,19.36,2.22,5.7,2.8,11.56,1.77,17.55-2.5,14.55-10.32,28.01-18.23,40.34-5.51,8.6-10.56,17.04-15.02,26.22-2.01,4.13-3.71,8.07-4.14,12.77-.29,3.16.49,7.08,2.73,9.41,2.69,2.8,6.65,3.53,10.23,4.31,2.11.46,3.84.18,5.96-.09,14.05-1.85,27.31-8.68,39.27-16.07,7.7-4.75,15.51-8.55,24.14-11.31,24.41-7.8,49.08-.43,67.92,16.34l8.64,8.63c3.69,3.69,6.39,8.02,8.88,12.6,3.13,5.77,5.41,11.64,5.99,18.29l.02,12.95c-.78,10.08-2.82,19.73-6.15,29.2-4.23,12-14.36,22.73-23.98,30.94-15.14,12.93-32.36,22.08-51.72,27.1-13.47,3.49-26.99,5.63-40.84,7.06-4.02.42-7.28.42-11.27-.41-16.26-3.39-32.36-6.37-48.9-7.91l-3.82-.35-8.11-.25c-1.51-.05-2.26.12-3.63.28-7.46.91-18.94,3.02-23.65,8.07l-2.21,2.38c-.1.1-.36.56-.5.53-.11-.02-3.63-3.13-5.59-5.38-4.42-5.08-6.9-11.03-7.18-17.87l-.24-.87c-.31-1.13-.75,1.48.01,6.01,1.27,7.52,5.87,13.99,11.9,18.53,1.48,1.11-4.58,4.93-.79,12.19l-9.06.13-8.67-1.15c-3.68-.49-7.3-1.5-9.99-4.01l-.46-.43-.85-.58c-.6-.26-.81.47-.19.67,2.46,2.49,5.35,4.18,8.67,4.71l11.13,1.76c3.18.5,6.18.73,9.61-.32,1.66,4.4,3.67,8.24,6.14,12.29-1.99,4.19-5.39,7.17-9.01,9.98-4.01,3.11-8.19,5.34-13.46,5.48-.47-.14-.82.27-.57.5,7.29.57,12.32-3.2,17.55-7.39,3.96-3.17,5.87-7.24,6.38-7.04.15.06.18.45.35.69l3.87,5.15c.65.86,1.09,1.09.68,2.19-3.21,8.56-5.88,17.17-7.57,26.19l-1.18,9.08-.41,4.13-.04,15.19c.58.38.02.66-.24.44-.89-.75-3.77.14-7.51-.89-13.15-3.62-25.6-8.62-37.55-15.18-13.22-7.25-27.57-19.67-35.08-32.56l-6.83-11.72c-3.29-6.6-4.23-13.89-5.37-21.11l-.32-3.42-.41-6.63c-.19-3.02-.22-5.64-.03-8.69l.31-5.15c1.36-22.22,15.62-40.21,34.16-51.63,13.77-8.48,29.01-13.93,45.19-15.38,6.47-.58,12.58-.83,18.46,1.87,2.83,1.3,5.91,2.93,9.14,2.6,6.27-.64,11.37,1.29,17.16,3.12,2.7.85,4.39,1.6,6.07,4.04l6.35,6.7,3.3,3.79,8.64,8.65c7.01,6.09,15.04,10.62,23.93,13.18,4.18,1.21,8.08,2.14,12.36,2.14h13.71c9.27,0,18.22-1.28,26.94-4.81,8.47-3.43,16.78-7.14,23.88-12.71,5.49-4.31,8.6-10.05,10.37-16.56,2.03-7.44,1.6-14.82-1.76-21.87-6.38-13.37-19.27-22.54-33.21-27.33-6.36-2.19-12.76-3.76-19.49-4.35l-4.53-.39-4.6-.41-6.11-.14c-2.73-.06-5.15-.08-7.86-.03l-7.8.15c-1.38.03-2.74.24-4.15.34l-4.52.35-5.39.37-4.94.4-5.35.42-13.04-.08c-7.51-.57-14.72-2.05-21.48-5.3-.76-.37-.9-1.22-1.06-1.87-.07-.27-.84-.21-.81.35.08,1.48,1.38,2.5,2.7,3.15,7.15,3.47,14.78,4.79,22.68,5.32l9.76.07,5.99-.41ZM273.43,153.74c-.71-.92-2.36-1.39-3.31-1.1-.76.23-.78,1.12-.38,1.51l.95.93c.65.64,1.45.96,2.16.55.46-.27,1.23-1.07.59-1.89ZM290.18,172.15c-.14-1.11-.82-1.19-1.53-.96-.63.2-.98.36-1,.91-.02.6,1.73,1.74,2.31,1.46.27-.13.29-.88.22-1.4ZM315.18,173.4c.79-.38.24-1.17-.1-1.49-.97-.93-2.49-1.13-3.29-.48-.36.29-.2,1.05.15,1.46.22.25.57.9,1.07.47.39-.33.87-.8,1.16-.62l1.01.65ZM237.63,198.24c-1.13-8.81-1.11-15.14,2.34-23.19-2.93,2.88-3.56,6.91-3.97,10.77-.44,4.15-.99,8.66,1.63,12.42ZM307.58,178.16c-.37.51.11.88.51.77.17-.04.42.12.62-.25.17-.31-.07-.56-.23-.61-.2-.05-.8-.06-.9.08ZM218.89,181.68c-.41.57.05,1.09.51.96.24-.07.34-.54.08-.84-.11-.12-.29-.53-.59-.12ZM221.7,195.46c.1-.53.03-1.14-.22-1.27-.3-.16-.95-.06-1.02.19-.05.19-.06.68,0,1.08.08.6,1.13.64,1.24-.01ZM265.49,207.1c1-3.27-.48-6.66-3.56-8.16,1.86,2.76,2.86,4.96,3.56,8.16ZM220.14,205.49c.16-.98-.51-1.2-.93-.84s-.51.61-.22,1.09c.25.42.98.83,1.15-.25ZM215.49,209.41c-.02-.66-.24-1.01-.39-1.41.21-.87-1-.89-.87-.05-.65.77-.31,1.32.01,1.72.36.45,1.26.36,1.24-.26ZM227.91,209.43c.93-.2.09-2.36-.69-1.96-.52.26.18,2.07.69,1.96ZM223.44,216.24c.66-.54-.17-2.2-.76-2.11-.7.11-.74,1.19-.54,1.64.13.31.56,1.08,1.3.47ZM233.72,220.8c.05-.99-.19-1.6-.69-1.85-.43-.21-1.18.03-1.4.6-.12.33.57,1.87,1.41,1.91.28.01.65-.02.68-.67ZM220.36,221.76c-1.54-.09-1.17.8-1.17,1.47,0,.51.63,1.32,1.09,1,.37-.64.22-1.77.08-2.48ZM227.59,226.9c-.71.35-.6.97-.53,1.27.06.25.59.43,1,.27.23-.09.32-.61.25-.99-.04-.24-.44-.69-.72-.56ZM233.84,235.81c1.09-.58.57-1.49.28-1.82-.19-.21-.48-.8-1.01-.36-.74.62.16,2.48.73,2.18ZM241.81,243.7c.92-.84.33-1.21.11-1.5-.29-.38-1.28-.22-1.24.14.08.68.83,1.15,1.13,1.36ZM231.04,246.9c.15-.28-.29-1.07-.41-1.4-.24-.64-.79-.71-1.27-.55-.34.11-.71.57-.67.99.11,1.04,1.95,2.01,2.36.96ZM260.58,246.35c-.4.82.23,1.33.53,1.45.38.16.66-.25.82-.43.31-.34.27-1.11-.05-1.2-.34-.1-1.17-.09-1.31.18ZM234.64,250.5c-.45.74-.13,1.28.21,1.63.37.38.76.29,1.09-.2.28-.42.27-.82,0-1.26-.19-.33-.98-.7-1.31-.16ZM260.6,254.48c-.69.41-.58.85-.35,1.18.32.46.97.61,1.25.38.36-.29.3-1.12.17-1.44-.11-.28-.79-.29-1.07-.12ZM250.61,257.19c-.41.76.32,1.27.8.74.19-.22.43-.34.22-.71-.17-.29-.68-.67-1.01-.04ZM244.39,260.64c.1-.53.03-1.14-.22-1.27-.3-.16-.95-.06-1.02.19-.05.19-.06.69,0,1.08.08.6,1.13.64,1.24-.01ZM236.87,267.09c.86-.59.03-1.26-.16-1.59s-.94-.66-1.31-.23c-.58.67.78,2.28,1.47,1.81ZM262.34,281.25c2.35-2.45,2.38-5.5,2.89-8.51.44-2.63-.08-5.06-1.16-7.82-6.01,3.69-8.7,13.4-4.31,17.41.84.77,1.97-.45,2.57-1.08ZM222.62,265.63c-.59.29-.73,1.24-.3,1.55.25.18.98.16,1.41-.15.26-.18.59-.46.04-.91-.28-.22-.53-.8-1.15-.49ZM253.83,275.89c1.77-1.62,2.46-3.31,2.52-5.41.63-1.5.43-3.45-.98-4.4-1.66-1.12-4.27,3.57-3.47,7.99.62.67,1.19,1.35,1.93,1.83ZM222.95,276.9c.4-.33.54-.79.37-1.25-.14-.37-.59-.66-1.21-.67s-1.04.27-1.22.67c-.26.57,1.41,1.79,2.06,1.24ZM243.45,278.97c-.04-1.71-5.9-4.9-7.97-2.84,2.27,3.31,8.02,4.94,7.97,2.84ZM242.77,288.46c.39-.43.49-1.19.32-1.77-1.01-3.49-3.71-5.22-6.8-6.49-2.25-.93-4.39-2.16-6.88-1.14-.5.21-1.11.68-1.14,1.09-.04.61.49,1.03.77,1.54,1.74,3.22,4.04,6.04,7.66,7.21,1.55.5,5.2.53,6.06-.44ZM252.06,283.83c1.14-1.23.49-2.65-.6-3.28-.85-.49-2.06-.83-2.8.4-.57.96.03,2.02.64,2.59s2.03,1.09,2.77.29ZM426,285.48c.31-.7-.51-1.74-1.04-2.03-.73-.4-1.94-.17-2.25.81-.25.81.53,2.55,1.32,2.26l.37-1.57c.05-.19,1.05.34,1.61.53ZM251.99,288.19c.75,1.13,1.79,1.13,2.53.48s.82-1.65.21-2.36c-.52-.6-1.41-.77-2.28-.33-.45.22-.74.55-.89.95-.11.3.08.74.43,1.26ZM435.51,292.13c.49-1.1.41-2.98-.71-3.72-.53-.35-1.74-.24-2.21-.06-.31.12-.23,1,.07,1.11,2.19.84,1.5,1.88,2.86,2.67ZM416.46,289.87c-.88-.97-3.29-1.07-3.8-.02.52,1.19,2.93,1.03,3.8.02ZM382.12,290.58c-.7-.41-1.49-.51-2.11-.61-.48-.08-.94.6-.79.92l.46.98c.46.99,1.3,1.16,2.21.87.69-.22,1.13-1.63.23-2.16ZM257.16,293.94c.34-1.45-.66-2.55-1.67-2.39s-1.05,1.81-.6,2.46,2.06.8,2.27-.07ZM257.73,297.78c-.69.38-.74,1.06-.39,1.57.26.38.62.66,1.08.23.35-.32.51-.72.37-1.24-.08-.31-.6-.82-1.06-.57ZM453.48,328.13c1.11-1.72-1.06-3.32.08-6.15-1.57.11-2.25,1.67-1.67,2.88l1.58,3.27ZM447.84,326.91l.71-.59c.14-.11-.1-.56-.26-.57-.19,0-.82-.14-1.06.01-.89.56-1.38,1.66-1.67,3.14,1.12,0,1.66-.85,2.28-2ZM262.14,374.85c.93-.85.43-2.61-.26-2.81-.93-.27-2.29-.34-2.5.85-.08.47.27,1.25.01,1.48-.23.21-1.04.23-1.06,1.2.99.1,2.97.04,3.8-.72ZM453.83,375.2c1.19.31,1.47-1.34,1.12-2.01-.38-.72-1.85-1.26-2.23-.48-.35.71.29,2.27,1.11,2.49ZM201.99,377.91c.16-.98-.51-1.2-.93-.84s-.51.61-.22,1.09c.25.42.98.83,1.15-.25ZM202.92,385.56c-.25-.18-.61.05-.6.22.07,1.24-.74,1.81-.03,2.49.41.39.8.2,1.08-.23.24-.38-.27-2.36-.44-2.48ZM198.25,387.13c-.6-.31-1.58-.35-1.94-.23-.52.45-.18,1.61.34,1.62.34,0,1.09,0,1.43-.23.27-.18.64-.93.18-1.17ZM417.44,408.64c-.22-.69-.53-.98-1.23-.75-.34.11-.63.53-.97.85-.62.51-.91.85-.75,1.22.26.62.51.87.87.86,1.09-.01,2.39-1.23,2.09-2.18ZM170.7,458.09c.28.03.85-.57.64-.92-.19-.31-.29-.83-.85-1.22-.66.6-.49,1.73.22,2.14ZM167.56,460.72c.21-.47-.67-1.76-1.11-1.72-.71.14-.51,1.26-.26,1.66.26.42,1.03.83,1.37.07ZM184.06,471.24c.9-.61.62-2.18.04-2.9-.46-.57-1.81-1.08-2.49-.4-.76.78-.34,2,.24,2.62.47.5,1.33,1.27,2.21.67ZM202,494.56c-.72.45-.32.81-.05,1.01.28.21.85.3,1.02.13.22-.22.29-.88.14-1.06-.17-.21-.84-.25-1.11-.08ZM200.19,496.9c-.07-.59-1.73-1.12-2.16-.48-.4.6.49,1.15.89,1.34.43.21,1.35-.21,1.27-.86Z"/>
  <path class="cls-1" d="M344.5,657.45l-5.47-5.42c-.29-.09-.52.03-.65.16l5.07,6.46c-.42,1.77-1.78,2.9-2.8,4.24-4.17,5.47-10.86,9.49-16.78,12.76-.03.92-.83,1.13-1.41,1.67-2.24,2.03-3.63,4.83-4.18,7.77l-2.43,12.84c-1.36,7.18-3.78,13.97-8.32,19.72l-4.32,4.33c-5.31,4.44-11.95,6.1-18.79,6.5-2.5.15-6.71.98-6.63-1.17.02-.48.3-1.11.84-1.46l7.27-4.67c1.25-.81,2.39-2.1,3.23-3.32,2-2.91,2.34-6.31,3.19-9.68.43-1.71,1.93-3.04,1.43-5.06l-2.81,4.6c-11.03,3.19-20.17,9.09-23.23,20.5-.94,3.49-2.63,7.08-5.9,8.89-1.77.98-4.31.32-6.1-.25l-8.45-2.67c-1.07-.34-2.4-.22-3.28.46-.71.56-1.49,1.57-1.67,2.82l-1.19,8.23c-.2,1.4-.91,3.13-2.54,3.27l-4.11.36c-2.6.23-4.86,1.04-6.28,3.29-2.15,3.4-2.32,9.82-.31,13.32.19.33-.01,1.24-.17,1.51-.19.33-1.19.69-1.47.04-2.25-5.16-4.12-10.42-4.93-16.02v-4.94c6.32-2.96,9.72-9.1,10.1-15.94.19-3.47.74-7.17,2.77-9.91.97-1.3,5.19-1.89,4.66-3.52-.76-2.35-7.84,1.04-10.82,8.01l-1.6,3.76c-1.27,2.97-1.83,6.38-4.1,8.72l-5.48,5.66c-7.44-5.55-8.5-15.55-2.89-22.78,5.35-6.89,12.96-11.18,21.45-13.08l4.03-1.45c.06-1.27-.3-2.66.42-3.67,1.01-1.41,2.85-2.02,4.53-2.5-3.16-6.17-6.36-11.71-1.41-17.11,4.75-5.17,14.78-8.04,22.16-8.61l14.13.02c7.32.55,14.48.97,21.79,3.31,9.05-1.66,17.15-6.94,23.69-13.97,4.62-4.97,7.54-11.24,8.14-18.2.75-8.73-2.55-17.05-7.9-23.96-4.87-6.28-10.43-11.57-17.03-15.95l-16.13-10.68-13.09-9.64c-13.05-17.91-21.43-35.67-22.67-58.09-.14-2.57.07-5.27-.68-7.6-.66-2.07-.11-3.84.03-5.93l.46-7.03c.63-9.64,3.61-18.55,6.51-27.69,2.19-6.92,5.37-12.86,10.49-18.06l3.7-3.76c6.93-7.03,22.11-9.71,32.29-10.48h12.48c9.22.58,18.21,2.07,26.65,5.84,5.09,2.27,9.02,5.59,12.4,9.93,5.69,7.29,7.36,16.52,5.1,25.54-2.58,10.29-6.89,19.76-13.89,27.81-8.8,10.13-23.05,16.81-35.59,21.68-2.12.82-4.32.48-6.49.64-1.91.14-3.77.79-5.67.23l-3.38-.3-9.2-1.84c.63-14.51,4.62-29.5,12.96-41.08,2.11.59,3.98,1.08,6.02.87-.77,4.07-1.12,8.19-.35,12.3.51.68,1.08.3.77-.24-.8-4-.14-7.94.72-11.96l7.46-.08c.6,5.21,6.7,15.77,7.79,15.25.27-.13.26-.43.03-.72-2.76-3.44-4.39-7.57-5.98-11.7-.43-1.1-.57-2.03-.38-3.34,2.87.58,5.83-.76,8-2.13,4.36,1.61,9.33,4.76,14.55,3.46-5.07-.91-9.68-2.02-13.81-4.56,1-3.64-1.36-7.12-5.08-7.84,1.45-3.27,3.49-6.27,3.22-10.04l-3.04,6.91c-.4.9-.64,1.95-1.2,2.37-1,.75-2.06.21-3.13.33-4.78.54-8.84,3.05-12.61,6.16-1.35-4.33-2.91-9.38-6.72-12.46-.08-.56-.94-.41-.71.1,2.36,1.91,3.42,4.45,4.41,7.02.82,2.13,1.83,4.03,1.94,6.38-.67.9-1.44,2.03-2.56,2.53l-.83.37c-.15.07-.03.59-.05.81-3.63,4.86-6.52,10.08-8.38,16-.02.61-1.07.54-.73-.25-3-2.63-6.44-4.98-10.55-6.09l8.05,5.32c1.08.72,1.94,1.74,2.44,3.05-1.77,5.69-3.32,11.32-3.66,17.33l-.36,6.48c-4.68-.63-9.68-1.92-14.95-.75,5.3.84,10.17.54,15.13,2.2l.1,2.31c1.39,7.5,4.27,14.4,8.64,20.59-1.05.09-1.99.04-2.85.51l-9.56,5.22c1.39.42,2.38-.43,3.47-.99,3.29-1.69,6.35-3.33,10.23-3.91,3.13,5.75,6.73,10.94,10.9,15.95-2.97.72-5.51,1.05-7.82,2.56l8.39-1.46c1.05-.18,1.65,1.66,2.16,2.22l3.59,3.93,9.82,9.96c-2.53,1-5.06,1.27-6.98,3.15l7.17-2.02c.54-.15,1.14.06,1.53.46l9.76,9.98,5.32,6.83c.5.28-.21.9-.45.28l-5.94-.25c-.9-.04-2.06-.11-2.59,1.09,3.41-.6,6.59-.26,10.07.61,3.28,4.96,5.41,10.49,6.08,16.49l.06,7.93c-2.38-1.71-4.3-3.52-7.02-4.66-.46-.19-.86.07-.62.5,2.39,1.19,4.06,2.9,6.04,4.43.68.53,1.46.94,1.29,2.09-.82,5.63-2.52,11.02-5.94,15.71ZM352.35,461.24c.99-.56,1.11-1.98.63-2.53l-1.48-1.71c-.61-.7-1.24-1.5-2.08-1.25s-1.67.82-1.88,1.46c-.48,1.45,2.56,5.3,4.81,4.02ZM267.41,502.11c.24-.57,0-2.52-.7-2.61-.91-.12-1.1,1.03-.57,1.47.29.25.39,1.06,1.27,1.14ZM262.97,502.76c-.19-1.4-1.46-2.51-2.66-1.91.63,1.17,1.52,1.76,2.66,1.91ZM259.71,519.63l-.73-2.22c-1.11.38-.89.88-.67,1.28.31.56.48,1.11,1.4.94ZM263.11,684.42c1-.5,2.31-.42,2.68-1.91-4.14.73-8.12,2-11.19,4.88-1.41,1.33-3.08,2.78-3.37,4.73-.17,1.19.95,2.54,1.9,3.45,2.35-4.65,5.31-8.82,9.97-11.15ZM258.72,733.41c6.14-3.05,4.88-10.92,3.97-11.24-.29-.1-1.01-.04-1,.2l.06,1.04c-1.33,3.62-3.77,6.76-7.22,8.56-.37.19-1-.28-1.34-.74-.56,1.3.88,2.14,1.65,2.59,1.31.76,2.55.26,3.88-.4Z"/>
  <path class="cls-1" d="M186.29,518.96c-4.05-2.48-8.04-1.49-12.72-6.18s-10.38-13.89-10.04-20.22c-7.19-.42-12.16-10.85-12.16-17.22l-.03-19.92.29-6.79c.07-1.6,1.01-3.54.12-5.13-.39-.7-2.13-.77-2.72-.35.48.86.68,1.73.31,2.26-.35.5-1.51.47-2.32.44-1.99,4.21-2.62,9.05-2.7,13.71l-.24,13.8c-.03,1.71-1.68,3.55-3.37,3.12-2.47-.63-4.49-2.37-6.05-4.26-6.01-7.28-11.68-17.45-9.36-26.78,1.61-6.5,5.42-12.26,10.57-16.53.77-.64,2-.67,2.54-1.74-.22-2.79.16-6.14,2.6-8.01,5.01-3.86,10.72-6.42,16.39-9.14,1.05-.5,1.21-1.45,1.23-2.53l.12-10.55c.07-6.41,5.53-15.75,9.81-18.32.96-.58,1.66-1.62,2.46-2.46-2.51-.04-4.43,1.06-6.55,2.18-7.48,3.97-13.31,9.87-18.55,16.38-1.56,1.94-4.69,2.86-6.66,1.58-2.32-1.52-2.61-4.46-2.59-6.97.04-5.52,4.13-11.49,8.28-14.9,4.62-3.79,9.55-6.67,14.76-9.57l8.87-3.99c.86-1.63,1.33-4.1,3.35-5.33,4.34-2.63,9.19-4.06,14.47-4.39s9.28,2.61,14.84-.08l6.62-3.2,6.72-3.29c3.75-1.83,8.13-3.94,12.49-4.23,8.24,1.45,15.94,5.33,22.32,10.46l4.21,3.39-2.98-.37c-2.54-.32-4.62-.23-7.07-.06l-7.05.47c-14.28,1.76-27.77,6.52-40.13,13.83-7.67,4.54-14.61,9.59-20.44,16.27-3.78,4.33-7.19,8.57-9.9,13.64-4.7,8.79-6.7,18.3-7.25,28.18l-.05,9.31.33,4.6,1.43,11.27c.91,7.13,3.53,13.32,6.72,19.68,5.3,10.58,11.82,20.13,20.64,28.03,6.3,5.64,12.72,10.46,20.16,14.52,10.5,5.73,28.33,13.45,39.67,14.74l6.63.1c-.25,1.63.09,3.2.31,4.86l1.82,13.72c-4.87,2.97-14.15-1.12-20.16-4.37.34,1.57,1.95,2.16,2.99,3.16,1.74,1.66,3.69,2.68,6.1,3.04,5.82.87,13.1,3.12,13.29,8.81.05,1.46-1.83,2.47-2.97,3.04-2.96,1.5-5.99,1.63-9.26,1.54-1.64-.04-3.06.14-4.64-.36-4.4-1.4-8.8-3.63-11.31-7.61-2.47-3.91-4.63-1.4-9.74-3.53-6.41-2.68-9.48-10.6-11.7-17.15-1.26-3.73-3.84-6.72-7.63-8.11-.52-.2-1.06.31-.78.79,3.32,4.18,6.58,8.27,8.82,13.05.67,1.42.92,2.61.2,3.99-1.93,3.68-7.62,1.2-11.67-1.98-5.24-4.12-8.64-9.76-10.68-16.12-.63-1.96-1.34-3.77-1.02-6.18Z"/>
  <path class="cls-1" d="M347.7,533.87c-2.54.6-4.29,3.06-6.03,4.62l-3.49,3.15c-3.03,2.73-6.16,4.69-10.15,5.64-3.48.83-7.19.6-9.79-2.18-3.25,2.38-6.51,4.21-10.22,5.59-4.1,1.53-8.72.06-12.89,1.14-1.62-3.93-3.05-7.68-3.38-12.31,8,3.81,14.7,2.7,23.13-.51,13.78-5.24,28.26-11.38,38.08-22.68,7.59-8.73,12.49-19.53,14.66-30.97,2.13-11.21-2.24-21.92-10.53-29.39-8.31-7.49-22.1-10.45-33.3-11.19h-16.11c-7.1,0-13.6,1.98-20.71,4.41,1.43-1.56,3.44-2.22,5.41-3.27,7.85-4.2,16.24-6.69,25.2-7.34l16.17-.05c5.42-.02,10.3,2.19,15.39,3.18,2.03.4,3.86-.2,6.05.9,3.64,1.84,7.27,3.75,10.54,6.42l4.43,5.89c1.91,2.54,8.67.54,10.87,8.96,3.11,3.01,6.73,7.13,4.5,10.86,1.19-.13,1.89-.17,2.47,0,2.03.58-.19,6.57-2.69,10.51l-5.7,8.99c1.22,1.99,3.12,3.79,3.21,6.08.16,4.32-3.3,7.71-7.29,8.55l-6.58,1.39c2.8,4.25,3.97,6.71,1.65,11.01-1.62,3-4.08,5.2-6.67,7.34s-5.21,4.37-8.68,4.97l-7.54.26Z"/>
  <path class="cls-1" d="M221.34,242.62c.55,2.51.75,5.33-1.05,7.08-2.65,2.58-13.23-3.74-18.18-6.19-3.25-3.57-5.94-7.24-8.64-11.21-14.72-21.62-24.56-44.59-27.93-70.63-.81-6.23-.59-21.14,2.33-21.17.95,0,1.46.44,1.67,1.54,4.19,21.67,15.72,44.7,29.49,61.98,2.4,6.74,7.41,13.01,12.12,18.39,1.47,1.68,2.9,3.07,4.66,4.46l2.54,2.03,3,13.71Z"/>
  <path class="cls-1" d="M251.74,235.62c-2.51-1.49-4.08-4.12-4.82-6.87-.36-1.37-1.39-3.05-1.2-4.49.45-3.5.66-6.78.86-10.3l.36-6.61.32-5.33.36-4.58-.05-18.83-.3-3.47c-1.17-13.41-4.62-26.19-9.78-38.4,1.78,1,2.73,2.28,3.75,3.74,6.01,8.59,10.74,17.89,13.99,27.96,2.56,7.95,3.49,15.92,4.27,24.17l.46,4.84.42,6.19-.02,20.18c0,4.19-2.65,7.78-4.98,10.97-.83,1.14-2.04,1.77-3.63.82Z"/>
</svg>