<?xml version="1.0" encoding="UTF-8"?>
<svg viewBox="87.93 154.40 455.38 552.75" id="Layer_1" data-name="Layer 1" xmlns="http://www.w3.org/2000/svg">
  <path d="M415.07,553.42c-14.06,13.24-26.96,26.82-39.16,41.44l-6.89,9.3-.38.55s.34.36.53.55l4.57-6.29c12.79-15.19,26.22-29.44,40.87-43.31-2.65,11.24-7.15,21.33-12.82,31.08-1.98,3.4-4.57,6.24-7.32,9.12l-17.44,18.24c-3.76,3.93-7.68,7.32-10.96,12.02l30.42-30.16c3.46-3.43,5.83-7.25,8.52-11.17l8.6-5.13,10.1-5.92c-5.82,9.66-12.28,18.09-19.36,26.46l-16.15,19.09c2.02-.53,2.71-2.14,3.95-3.45,9.56-10.11,18.44-20.52,26.57-31.83l7.61-12.1,10.01-6.81c1.94-1.32,3.84-2.38,6.05-3.01l4.2-1.21-6.55,10.68-18.54,26.14-10.59,15.22,10.74-13.49,20.03-27.81,7.14-12.1c3.94-2.61,11.81-5.19,14.79-2.76l-6.76,11.58-16.65,22.17-12.46,14.17c6.84-5.28,12.3-11.54,17.34-18.28l12.27-16.39c3.13-4.18,5.4-8.57,7.66-13.21l1.79,1.06c6.29-2.38,10.57-7.64,17.3-9.62l-8.69,14.33c-6.4,9.43-13.26,18.12-20.69,26.77-4.48,5.22-9.37,9.32-14.5,14.06,6.84-3.86,11.94-9.38,17.02-15.08,6.52-7.31,12.28-14.86,17.91-22.88,4.03-5.74,7.35-11.51,10.56-17.7,2.78-.42,5.6-.18,8.08,1.15l4.9-2.25c-1.71,4.95-3.62,9.03-6.5,13.11l-23.37,33.08c-5.16,7.3-11.13,13.15-17.54,19.7,5.66-3.76,10.07-8.65,14.37-13.85,9.47-11.45,18.08-23.27,26.22-35.71,3.17-4.85,5.95-9.72,7.57-15.19.46-1.54.64-1.98,2.01-2.77,6.26-3.63,12.99-5.81,20.34-5.39,1.76.1,4.03.6,5.16,1.81,1.42,1.52.46,3.34-.44,4.69l-9.26,13.97c-7.44,11.21-13.89,22.61-19.76,34.74l-9.26,17.46c-3.17,5.98-7.12,11.2-11.58,16.28-10.92,12.42-25.6,17.76-41.8,20.29-12.82,2-25.35,2.78-38.39,3.06-14.14.3-27.7,1.66-41.25,5.56-4.24,1.22-7.87,2.98-11.53,5.39l-4.32,2.37c-6.15,3.37-12.22,6.15-18.87,8.64-16.58,6.2-33.36,11.02-50.71,14.72-35.17,7.49-70.48.31-100.61-18.88-13.88-8.83-26.07-19.52-36.32-32.43-13.75-17.32-23.46-37.56-27.18-59.52-4.21-24.84-2.03-50.34,6.2-74.11,11-31.76,31.68-56.22,56.93-77.72,9.63-8.2,20.03-14.64,31.83-19.21,3.83-1.48,7.51-3.22,11.74-3.03l4.35.2c.31.01.89.58,1.03.93.78,11.48,2.93,22.38,6.23,33.36,1.32,4.82,1.83,9.47.88,14.32-.27,1.4-1.32,1.72-2.35,2.42-5.27,3.54-12.94,10.84-14.17,16.84l-1.81,8.86c-6.52,3.08-12.35,7.12-17.48,12.26-3.28,3.28-6.39,6.42-8.99,10.27l-8.84,13.09c-4.13,7.33-6.25,15.16-8.09,23.36-6.7,29.85-1.59,61.17,21.69,82.33,10.34,9.4,22.25,16.91,35.12,22.5l9.59,1.46c13.78,3.31,27.55,3.88,41.62,1.72,14.12-2.17,27.55-5.84,40.94-10.86l10.08-8.4c18.84-15.7,26.92-36.13,30.17-60.1,1.51-11.12,1.65-21.95,2.32-33.17l1.99-33.16c1.26-11.99,5.15-22.94,11.95-32.83l10.84-13.95,1.47-2.34,4.79-5.92c5.15-6.37,9.12-13.41,11.73-21.2,1.71-5.11,2.3-10.12,1.75-15.54-.09-.92.51-2.26,1.36-2.49,3.13-.83,5.93.3,8.39,2.3,6.27,5.11,9.6,19.78,9.43,27.9-8.78,5.47-15.85,11.92-22.8,18.9-7.24,7.28-13.62,14.78-18.63,23.85l.38.5c4.04-6.61,8.22-12.27,13.36-17.87,8.03-8.74,16.58-16.68,26.39-23.44l1.1-.76c.21-.15.32.5.4.98l-1.92,15.68c-9.89,7.1-19.3,14.83-27.65,23.91l-4.72,5.14-8.01,10.45-.38.57c-.07.1-.12.5-.01.44l.86-.52,7.78-9.93,14.14-14.1,16.61-13.68.98-.05-2.96,9.61c-4.74,3.08-9.19,6.17-13.29,10.18l-19.62,19.21c-4.66,5.34-8.9,10.59-12.22,16.9.13.17.6.61.65.46l.27-.76c3.1-5.23,6.71-9.81,10.74-14.42l20.79-20.41,11.58-9.16.71-.43c.16-.1.22.18.28.58-.82,8.24-4.95,14.54-6.26,22.09l-10.2,9.36c-8.63,7.93-23.29,24.75-28.05,35.69-.12.52.11,1.11.46.62l4.51-8,8.77-11.28c7.44-8.83,15.41-16.87,24.04-24.6.28.02,1.05.08.76.06l1.5,3.69c1.42,3.5,2.54,7.11,2.29,10.81-9.89,8.25-19.03,16.62-27.21,26.33-4.8,5.7-9.62,11.14-12.84,17.99l14.1-17.9c7.85-8.76,16.16-16.71,25.18-24.25l.59-.49c.93-.77-.37,6.55-2.72,12.06-.75,1.77-1.24,3.34-1.57,5.21-7.98,5.35-15.25,11.43-22.13,18.24-8.15,7.83-14.82,16.49-20.39,26.33l.36.77c5.93-10.33,13.24-19.37,21.95-27.52,6.77-6.47,13.67-12.21,21.49-17.44l5.51,5.44c-6.24,5.95-12.15,11.84-17.52,18.75l-24.71,31.79-4.63,7.24c-.11.17-.18.96-.16,1.09s.21.12.28,0l.55-.85,8.83-12.45,21.76-27.26,15.51-16.68c.07-.06.69-.41.74-.27l.37.98c2.21,5.82,2.17,11.94.73,18.2ZM155.75,484.89c-3.75-1.42-2.46-15.36,1.22-20.16-1.11-.09-2.1,1-2.53,2.18-2.41,6.58-3.76,18.2,1.23,19.19,1.93.38,4.23-.63,5.35-2.11-1.77.12-3.3,1.64-5.26.9ZM130.48,505.26c-1.36-2.12-.76-4.86.15-6.93-2.04-.86-2.94,4.42-1.49,7.31.55,1.09,2.27,1.83,3.35,1.89,1.32.07,3-.59,3.38-1.92-1.71.71-4.21,1.49-5.39-.34ZM142.22,509.95c-2.07-.13-1.51-3.28-1.56-4.65,0-.2-1.02.07-1.1.26-.69,1.65-.03,5.19,2.31,5.67,1.39,0,1.94.25,3.82,1.01-.13-.34-.76-1.39-1.18-1.94-.3-.39-1.46-.3-2.29-.35ZM120.6,565.42l-1.78-22.48c.18-.27.48-.71.49-.72s-.46-.07-1.12-.18l.1,9.3,2.04,20.9c1.17-2.23.38-4.4.26-6.83ZM116.48,566l-1.58-7.68c-.63-3.08-.96-6.07-2.32-9.18-.47,3.17.68,5.82,1.2,8.73s1.23,5.76,2.7,8.13ZM143.63,610.24c.98,2.47,2.79,3.94,4.81,5.2,1.42.88,3.17.46,3.92-1.1.95-1.97,1.52-4.44.28-6.59-.55,2.54-.08,4.67-1.62,6.56-.63.78-2.22.18-2.94-.41l-4.46-3.65ZM154.4,636.63c1.28-.09,2.34-1.35,2.59-2.24l.8-2.88,3.62,1.57c.58.25,2,.11,2.47-.21s1.13-1.42,1.07-2.05l-.53-4.8-.32-1.01c-.08-.25-1.22.13-1.18.4l.74,4.62c.08.48-.31,1.65-.74,1.8-1.52.54-3.35-1.64-5.89-1.53l-1.01,3c-.47,1.39-1.19,2.63-2.98,2.22-1.9-.44-3.71-1.72-5.52-2.66,1.26,2.66,4.04,3.96,6.89,3.77ZM386.75,630.34l.7-.52c.11-.08-.37-.41-.51-.5l-4.44,2.41c1.81.81,2.96-.43,4.25-1.39ZM334.16,650.6c-.69,1.84,1.53,3.13,2.82,3.14l-2.29-2.59,3.61-3.6c.87-.86,2.12-2.61.74-3.7-1.78-1.4-4.41-1.93-6.71-2.3l3.68-5.3c.38-.55.6-2.15.25-2.66s-1.39-.94-2.26-1.26c-4.71.1-8.89,2.18-11.78,5.91l.35,1.08c.07.2.64-.17.79-.34,5.75-6.71,13.81-6.22,11.79-3.4l-3.51,4.89c-.34.48-.63,1.07-.6,1.42s.87.81,1.26.9l5.07,1.2c.41.1,1.15.77,1.12,1.16-.14,1.79-3.44,3.08-4.33,5.45ZM393.4,632.65c-2.28,1.81-4.24,3.21-6.77,3.87,1.3,1.91,6.53-1.25,6.77-3.87ZM301.48,664.68c1.76.84,3.76-.83,4.16-2.12.79-2.56-6.7-6.49-9.68-4.28,4.54.4,9.68,2.59,8.65,4.43-.22.39-.94.92-1.4,1.14l-1.73.83ZM199.13,664.54c1.26,1.55,2.77,2.05,4.41,2.02,1.36-.02,3.03-.83,3.87-2.26.43-.73.32-2.35-.1-3.1-.53,1.59-.76,2.88-1.72,3.48-1.08.67-2.46.83-3.61.52-1.39-.37-1.96-1.2-2.41-2.58-.3-.08-.76,1.52-.44,1.92ZM252.13,667.02l-5.77-2c1.3,2.3,3.88,2.53,5.77,2ZM274.83,674.55c0-1.96-.7-3.7-2.26-4.66-.59-.36-2.2-.22-2.54.12,2.07.67,3.13,1.37,3.7,3.09s.17,2.95-1.51,3.94c1.64.43,2.61-.86,2.61-2.5ZM247.78,673.38l-3.66-2.76c-.14,2.18,2.12,3.26,3.66,2.76Z"/>
  <path d="M228.74,253.31c.42,3.15,2.6,4.6,4.52,6.41,2.61,2.46,2.23,6.71.27,9.37l-4.21,5.71c-2.07,2.8-3.57,6.2-3.93,9.72-.44,4.25,2.19,7.55,5.66,9.62,4.74,2.83,7.4,6.37,6.04,12.36,1.76-1.38,1.69-3.71,1.19-5.86-.83-3.52-3.4-6.15-6.48-7.99-4.19-2.51-5.84-6.64-4.07-11.27,2.81-7.35,8.29-10.78,8.92-15.33,1-7.2-6.97-9.06-6.21-14.14l3.52,2.43,6.91,5.64c1.81,1.47,4.62,1.89,6.9,2.47,1.81.46,3.4-.21,4.9-1.44,1.16,1.53,1.81,3.58,1.83,5.79.03,3.05,1.04,6.43.6,9.47-1.54,8.61-3.03,16.84-2.91,25.58l.17,12.4c-2.86,1.32-4.53,3.76-5.11,6.77-1.62,1.5-2.73,3.29-3.05,5.58-.39,2.34-2.55,1.66-3,2.3-1.22,1.71,2.61,8.48,5.1,11.59,2.49,3.01,5.56,5.22,9.19,6.61l.98-.15c.25-.04.51-.84.27-.91l-1.15-.32c-5.51-1.54-11.9-9.72-13.4-15.85,1.86-.11,2.89-1.21,3.24-2.85.43-2.06,1.43-3.83,3.03-5.22.62-2.43,1.77-4.63,3.88-5.94l.42,6.8c.43,6.99,1.94,13.82,3.88,20.51.74,2.53,1.32,4.6.49,7.36l-5.74,19.07-6.74-7.01c-4.34-4.51-8.27-9.29-9.49-15.63l-.07-3.68c-.02-.77-.21-1.17-.94-1.7l-.77-5.04c-.42-2.76.55-5.43,1.96-7.82,1.53-2.6-1.95-2.67-2.77-5.83-.69-2.66-3.15-.56-6.53-1.26l-2.05-4.37c-.47-1-1.64-2.11-2.44-2.77l2.49-17.55,8.02,6.08c1.94,1.47,3.11,3.5,4.78,5.62.51-2.92-1.72-5.11-3.74-6.69l-9.24-7.24-8.46-5.76c-.77-.52-2.32-.31-2.69.66-2.9,7.65-5.14,15.38-5.79,23.56-.97,12.2,5.83,17.68,4.48,23.04-1.11,4.44-2.39,8.54-2.46,13.17l.78,5.66c-6.18-2.52-10.45-7.51-12.58-13.58l-1.68-4.77c-15.05.18-27.01-16.35-30.57-30.04-1.79-6.9-1.73-13.65-1.33-20.65.83-14.46,5.72-27.65,13.89-39.52,5.9-8.57,12.2-16.36,18.6-24.59,4.87-6.24,7.49-13.67,9.82-21.16,4.98-16.01,17.06-23.74,32.84-27.67,2.85-.71,5.91-.29,8.54.39,6.2-4.9,15.54-3.64,23.23-1.58,27.18,7.31,35.18,22.45,39.89,48.86,3.22,18.04,8.71,38.21,30.41,35.92l16.11-3.06c3.84-.73,8.08-.79,7.86.94-.2,1.64-4.63,1.16-7.85,5.36l-5.45,7.11c-7.4,9.66-17.52,9.59-28.59,6.73l8.05,8.08c3.97,3.23,8.15,6.09,13.04,7.75,7.39,2.51,14.75,4.21,22.41,5.84l25.57,5.47c6.22,1.8,11.86,4.89,16.16,9.78,5.09,5.8,7.96,13.3,8.54,20.93.32,4.17-1.15,7.61-3.93,10.39l-.72.72c-.97.97-.31-5-4.7-9.22-5.04-4.86-10.96-7.48-17.68-9.09s-13.26-1.12-19.46,2.15-10.31,9.74-6.59,14.55c2.03,2.62,4.44,5.03,7.38,6.72l16.43,9.46c4.03,2.32,7.95,4.41,11.6,7.23,11.31,8.75,10.34,21.67,2.44,32.92-3.22,4.59-7.68,7.71-13,9.32l-.78,1.93c-.06.16-1.18.08-1.17-.09l.06-1.02c.24-4.82-2.37-9-6.15-11.88-6.17-4.7-12.07-6.34-19.5-3.87-3.52,1.17-6.69,1.48-10.22.19-19.09-6.97-27.29-33.86-32.47-52.34l-1.63-5.8-2.67-20.82c-1.89-14.74-3.11-33.06-11.86-45.44-5.39-7.63-13.38-12.02-22.65-12.78-5.01-.41-9.9.65-13.6,4.26l-5.66,5.53c-.12-.02-1.31.21-1.42.54l-2.59,7.61-.4-6.67c-.12-2.08-.77-3.96-2.19-5.57l17.45-16.71c1.38-1.32,2.36-3.38,3.15-5.07,2.36-5.02,3.15-10.32,3.53-15.83l.74-10.73c4.75,2.9,8.82,4.64,14.02,1.73l-.69-.59c-3.12,1.56-6.18,1.08-9.23-.56-7.64-4.11-13.52-11.25-16.95-19.13.11-.35.3-1.32.03-1.36l-1.34-.21c-.34-.05-.29,1.19-.17,1.53-4.47,7.44-12.75,11.56-21.17,13.81l-8.85,2.36,1.98.75-6.85,9.49c-2.78,3.84-4.44,8.37-4.97,13.03s2.03,8.09,6.27,9.53c3.79,1.28,7.26,3.54,8.62,7.7-1.64-1.22-3.66-2.29-5.81-2.31-3.05-.03-4.9,2.38-4.5,5.38ZM287.85,197.49l-4.45-3.15c-.03,2.48,2.57,3.89,4.45,3.15ZM284.58,201.44l-4.71-5.68c-.04-.43-.59-.91-.74-.68-1.11,1.62,3.24,6.31,5.45,6.36ZM343.62,264.07c-.99.62-2.16,1.64-3.09,1.78l-9.17,1.33c4.62,1.38,13.74-.14,12.26-3.1ZM191.17,279.98c.25-3.24-.11-6.26-.4-9.63-2.01-.19-1.17,6.25.4,9.63ZM185.89,277.11c1.52-1.37,1.33-3.06,1.5-4.66l.1-.91c.02-.2-.59-.4-.71-.25s-.58.79-.6.98l-.29,4.83ZM366.84,305.88c-1.35-2.33-3.72-1.88-5.61-2.26-1.51-.24-2.62-.35-4.11.57,2.32,1.44,5.75.1,9.73,1.69ZM361.51,310.39c-.2-1.73-1.47-2.52-2.73-3.07l-2.25-1.49c-.19.14-.67.97-.42,1.13l.83.55,4.57,2.87ZM353.57,314.21c.33-2.14-.83-3.34-2.44-4.78-.24.74,0,1.62.46,2.22l1.98,2.56ZM365.17,369.03c.18-1.1-.24-1.94-.77-2.51l-4.16-4.55c-.48,1.09.03,2,.76,2.76l4.16,4.31Z"/>
  <path d="M273.34,406.11l-3.11,15.86-2.75,2.44,2.32-.83-10.55,27.16-7.11,25.09c-3.14,4.81-9.41,5.58-13.98,2.34l3.41-4.28,5.98-6.57c3.3-3.63-.4-7.55-.14-13.99l.57-14.13-.44-21.48,1.77-20.88c.15-1.75-.24-3.22-.58-4.84-.15-1.34-.01-3.53.27-4.95l2.69-13.86,6.93-22.79c.88-2.88.21-4.83-.59-7.5-2.04-6.83-3.4-13.91-3.94-21.07l-.44-5.94c.48-.67.56-1.34-.05-1.98l.07-17.24c.04-9.89,2.24-19.38,4.72-28.63,4.8-5.13,10.33-11.46,17.16-11.76,15.11-.66,25.75,8.89,30.45,22.93,2.61,7.81,4.21,15.65,5.11,23.87l2.33,21.28c1.04,9.47,3.19,18.55,6.82,27.36l8.03,19.48c-2.68,0-4.76.67-6.97,1.93-6.85,3.91-12.42,9.4-17.2,15.71l-7.77,10.24c-1.75,2.31-3.89,2.85-6.7,2.88-5.7.05-11.03,2.56-15.59,5.68l1.06-5.07,4.99-20.45,3.92-27.46,1.13-19.44c.49-8.44.82-16.58,2.51-24.82,1.08-5.28,3.86-10.06,8.02-13.19l1.61.3c.11-.29.06-1.25-.27-1.41s-1.21-.1-1.66,0c-4.86,3.2-7.66,8.08-9.13,13.74-1.61,7.86-2.27,15.67-2.63,23.75l-.69,15.36-2.59,20.42-2.7,18.16-4.3,18.59Z"/>
  <path d="M253.21,476.2l6.45-21.92,9.06-24.68,2.75-7.13c8.17-5.71,16.44-6.94,26.49-6.74l8.83-6.91c6.87-6.09,14.83-9.7,23.91-11.05,1.56-.23,2.78-.56,4.2.63,3.81,3.22,7.25,7.01,9.63,11.49,2.2,4.14,2.89,8.45,3.93,13.06,2.64,11.63,1.41,23.92-5.26,34.1-5.73,8.75-14.4,15.04-24.18,18.47-5.97,2.1-11.81,2.46-18.03,2.84h-23.86s-23.92-2.15-23.92-2.15ZM296.9,472.62c5.05.77,9.32-1.35,13.76-3.05,8.02-4.11,15.08-9.43,21.05-16.21,4.39-4.98,7.35-10.76,8.7-17.23.47-2.27.62-4.36-.48-6.7-.73,1.52-.57,2.8-.78,4.31-.98,7.23-4.36,13.64-9.23,19.02-5.59,6.18-12.03,11.17-19.25,15.26-4.38,2.45-8.77,3.53-13.77,4.6ZM273.36,440.64l-2.88,1.56.18-2.83c-1.43.5-1.97,2.9-.82,3.56,1.8,1.03,4.9-2.01,4.9-2.01l-.58-.57c-.1-.1-.64.2-.81.29ZM276.19,447.73c-1.86-.11-1.91-2.83-1.35-4.27-1.66.52-1.5,2.54-.96,3.9.37.91,1.91,2,3.13,1.6,2.45-.79,4.84-2.38,5.76-4.72-2.6.62-3.86,3.64-6.58,3.48ZM314.66,451.64c.68-.74,1.03-1.9.44-2.72-5.19,6.67-13.2,11.26-20.96,13.56,6.56.5,16.27-6.22,20.51-10.84ZM293.13,455.8c3.11-1.29,7.54-3.56,8.42-5.44.07-.16-.83-.14-1.04-.02l-7.62,4.68c-1.19-.27-1.11,1.02.23.77Z"/>
  <path d="M219.37,481.8l1.28-8.05,1.52-4.66c-2.56,1.72-3.51,6.09-3.98,9.76-.4,3.08-.7,5.81.99,8.67-4.09.65-5.63-2.99-6.51-7.03-.97-4.51-.39-8.71,1.8-13.21-2.69,1.7-2.87,4.79-3.43,7.59-.68,3.42.5,9.58,2.84,12.27-2.75-.03-3.91-2.19-4.94-4-1.14-2-.83-3.52-.29-5.58.98-3.76,1.49-7.49,3.93-10.7,3-3.94,6.96-7.63,10.92-10.48l2-.98c2.18-4.33,1.86-11.83.4-16.76-3.16-10.68-5.48-21.27-6.76-32.38l-1.26-6.3c-1.71-8.55-2.71-17.03-3.13-25.9-.2-4.22.81-9.14-.92-12.84-2.69-5.75-4.13-11.44-2.61-17.84l1.87-7.85c1.23-5.16-6.39-11.27-4.3-25.12,1.06-7.02,2.86-13.52,5.41-20.32l9.05,6.01-2.55,16.76c-.24,1.56-1,2.77-2.32,3.62-2.4,3.49-2.53,7.88-1.59,12.01-.77,4.58-.06,8.79,1.93,12.97.94,1.89,1.93,4.83,4.11,5.53l5.11,1.64c2.1.67,4.07,1.04,6.19-.27,1.01,3.86,2.6,7.2,4.85,10.56l.37,6.48.36,7.88.29,10.21-.33,11.66c-.05,1.65-.06,2.55.36,4.12.51,1.94-.34,4.45-.14,6.62l3.33,36.52,2.29,15.16c1.06.45,1.27,1.18,1.58,2.36.57,2.19,1.27,4.68-.44,6.56l-4.86,5.33-2.74,3.09-3.96,5.23c-1,1.31-3.7,2.78-5.09,2.52l-.99-.19c-.12-.02-.02.19.05.29l.6.84-8.68,3.92c-1.19-1.78-1.97-3.51-1.62-5.69ZM229.58,379.34l2.48.6c-1.83-3.26-8.15-2.06-8.76.86,2-.7,4.28-1.95,6.28-1.46ZM229.12,476.48l3.82-.61c-1.05-.62-2.33-.78-3.7-.79l5.58-10.3c.56-1.03,1.01-2.1.45-3.45l-6.69,12.16c-1.62,2.94-2.35,7.48-1.49,8.06.29.19.91.38,1.53.55-.75-1.95-.96-4,.51-5.62Z"/>
  <path d="M230.35,251.24c2.09-3.05,5.59-1.64,8.66.93,1.08-.49,1.22-1.84.91-2.99-1.97-7.27-9.42-7.42-12.26-10.14-5.37-5.14,1.64-17.14,6.25-23.29l3.7-5.71c5.54-.98,10.91-2.37,15.91-4.88,4.52-2.25,8.19-5.18,11.15-9.66,2.86,6.49,7.17,11.6,12.59,15.85l-.76,7.65c-.48,4.83-.6,9.55-1.95,14.23-1.04,3.62-2.31,7.29-5.01,9.92l-6.76,6.58-11.32,10.3c-2.23,2.03-8.38-.16-9.76-1.25l-7.07-5.55c-1.26-.99-2.7-1.47-4.28-1.98ZM256.43,217.92c.73-5.13-9.05-5.8-13.7-2.44l8.52-.59c2.17-.15,3.58,1.54,5.17,3.04ZM267.51,218.61c2.74.02,4.58,1.65,6.74,3.27-.09-1.62-1.29-2.79-2.73-3.61-2.54-1.45-6.23-1.97-7.96,1.18l3.96-.85ZM253.31,229.09c-.97-1.72-1.87-2.77-1.9-4.59-3.12.77-6.67.54-9.69-1.55-1.39-.96-2.54-2.31-4.44-2.6,2.56,4.18,8.14,6.84,12.74,5.73.78,1.28,1.44,3.2,3.3,3ZM259.82,237.82c1.74-1.35-1.91-4.39-1.81-7.44.11-3.42,1.97-6,3.91-8.76-.16-.32-1.32-.26-1.61.09-3.45,4.03-5.18,9.39-2.05,13.33.34.43.7,1.94.16,2.28l-5.97,3.72c2.84-.12,5.07-1.41,7.37-3.2ZM273.33,232.43c-1.94-1.55-2.94-2.74-3.21-4.95-2.26,1.41-5.21,1.44-7.03-.33-.26-.25-1.28-.52-1.3-.18-.1,2.46,4.38,4.08,7.35,2.26.77,1.84,2.13,3.63,4.19,3.19ZM256.18,246.71c-2.42.11-3.9.07-5.92-.37l-5.44-3c-1.15,1.59,3.35,3.46,6.67,4.48,1.69.34,3.39.29,4.69-1.11Z"/>
  <path d="M282.01,415.82c-3.69.6-6.76,2.89-10.18,5.01l2.08-11.97,8-3.76c6.18-2.91,11.73.22,15.43-4.63l8.14-10.67c4.57-6,9.76-11.27,16.22-15.14,2.12-1.27,4.18-2.07,6.89-2.17,1.4,4.65,1.68,9.18,2.52,13.89l1.77,9.91c-13.51,1.46-19.45,5.01-29.29,13.23-1.94,1.62-4.06,4.05-6.53,4.55l-5.46.18-9.57,1.57Z"/>
  <path d="M229.14,335.77c-3.85,2.45-3.53,6.92-3.07,10.94-1.93-3.7-2.19-7.64-2.82-11.52-.39-2.41-.2-4.56.01-7.47-.75,1.17-1.09,2.66-1.2,4.28.12,4.53.82,8.69,2.06,13.06l-.58,1.54c-1.78-1.6-2.6-3.37-3.58-5.26-2.17-4.2-2.36-8.24-2.22-12.9.12-3.74-1.76-9.19,3.54-12.94.91,1.03,1.65,2.25,2.35,3.68l1.69,3.44h5.97c.41,1.92,1.57,3.38,3.48,4.47-.74,1.71-1.93,3.56-2.26,5.36-1.29,6.94,2.55,11.44,1.14,14.16-.87,1.69-3.22,1.67-4.56,1.09-3.55-1.52-2.53-7.54.05-11.94Z"/>
  <path d="M245.93,451.73l-1.05-9.83-3.43-36.03.03-7.76,6.81-1.19c-1.81,10.28-2.27,19.68-2.13,29.72l.23,16.88-.46,8.21Z"/>
</svg>