<?xml version="1.0" encoding="UTF-8"?>
<svg id="Layer_1" data-name="Layer 1" xmlns="http://www.w3.org/2000/svg" viewBox="0 0 566.93 566.93">
  <defs>
    <style>
      .cls-1 {
        fill: #1c2850;
      }
    </style>
  </defs>
  <path class="cls-1" d="M120.43,313.08c-1.89-1.1-2.15-4.19-2.39-6.15-1.15-9.4,1.69-25.16,1.9-35.21.34-16.74-.09-33.94-.65-50.55-3.38,1.05-19.27-4.22-20.36-.96l-5.11,82.53c-.38,11.09-10.09,17.59-18.62,22.96-11.09,6.97-27.18,14.8-39.11,20.21-9.76,4.42-18.54-4.78-6.65-10.61-3.3-.15-5.41-5.15-6.06-5.6-.34-.23-5.83-.21-7.91-1.73-2.23-1.63-4.12-7.07-.96-8.7l30.81-13.29c5-4.8,13.19-5.82,16.08-12.77l3.31-77.18c-6.51,4.41-14.99-7.11-12.99-12.52.68-1.82,4.33-3.19,4.05-6.62-.11-1.34-1.37-2.26-1.53-3.56-.18-1.47,1.22-2.96,1.11-4.09-.14-1.42-2.07-3.32-2.14-5.27l1.36-1.38c16.38,2.68,33.1,4.83,49.66,6.65,13,1.42,26.63,2.94,39.66,3.71,1.42.08,2.7-.45,4.07-.57.41.13,3.29,5.54,3.59,6.44,1.64,5-.78,28.89-.85,36.32-.14,15.03.68,30.18.03,45.2-.26,6.1-.49,18.28-1.74,23.66-1.87,8.05-10.14,9.88-17.56,8.41-1.29-.26-2.56-1.86-3.8-1.84-2.08.03-3.98,4.4-7.2,2.53Z"/>
  <path class="cls-1" d="M479.76,471.06c-9.45,18.41-21.9,35.35-38.14,48.49-5.09,4.12-17.55,13.9-22.9,16.42-6.12,2.89-17.05,2.96-20.89-3.61-.85-1.45-1.7-5.3-2.01-5.51-.45-.31-4.85,1.02-6.16-.6-1.59-2.23,1.24-2.38,1.41-4.27h-2.46s-.16,1.58-.16,1.58c-2.35-.34-1.46-5.71-.25-6.61,1.97-1.46,5.17-2.16,7.43-3.68,23.54-15.87,43.72-36.1,54.11-63.03,1.87-4.84,12.02-38.04,8.31-40.11-2.63.58-6,.44-8.67.19-12.1-1.12-26.28-1.34-38.58-.77-3.27.15-7.37,2.84-9.49-.16-.43-.61-2.57-5.3-2.7-6-1.87-9.62.69-27.4.4-38.8-.23-9.03-3.07-18.05-2.32-25.83.14-1.42,1.78-2.1,2.27-3.5s-.41-3.88,1.05-4.88c4.6-3.17,5.16.74,7.25,1.99,8.73,5.23,17.13-6.58,24.81,3.91l2.16-3.21.59,43.27,49.43.35c6.92,1.48,8.08,3.13,9.18,10.09,3.36,21.22-3.81,65.08-13.67,84.3Z"/>
  <path class="cls-1" d="M336.11,216.95c-1.58,4.65-11.54,27.16-14.16,29.94-1.53,1.62-4.74,2.48-4.84,4.09,5.16,16.31,12.34,32.84,19.56,48.39,3.35,7.21,7.97,14.11,10.5,21.4-1.59.38-2.4,2.96-2.88,3.29-17.4,11.97-68.27,33.79-89.44,35.16-4.88.32-8.05-.54-10.93-4.85-4.89-7.33,1.82-7.25,1.86-9.56.02-.92-1.27-1.98-1.34-2.9-.13-1.65,1-3.37.08-5.32-.3-.65-2.16.05-3.26-.4-4.55-1.85-2.8-7.91,2.03-8.41,2.45-.25,3.06-.22,5.81-.72,21.03-3.82,34.55-12.24,54.37-20.5l-50.44-132.37c1.72-2.1,7.22,1.69,9.64,1.33,1.85-.28,3.02-1.99,5.09-1.95,3.01.06,2.94,2.63,3.52,2.92.89.46,8.98-3.29,13.25,1.39l17.63,38.25c7.23-12.69,6.93-33.41,7.83-47.89,3.37-3.01,5.54.83,7.45,1.43,1.5.46,4.12-.17,6.09.12s6.47,2.6,7.96.77c.86-1.06-1.51-5.14,4-4.99,9.62.27,5.69,5.85,5.04,11.15-1.36,11.02-.85,29.71-4.43,40.23Z"/>
  <path class="cls-1" d="M530.71,311.32c-7.9,13.2-35.36,34.65-47.63,43.96-7.58,5.75-10.24,5.14-18.03,8.22-1.67.66-4.22,4.86-6.29,2.11-4.71-6.25,1.28-8.49-1.96-14.27l3.83-4.7c-5.97-1.9-15.69-7.27-7.04-12.92,26.75-17.48,54.36-43.09,61.4-74.81.42-1.89,2.54-10.31,1.05-11.3-15.48-.44-31-2.1-46.5-1.88-3.3.05-12.79,2.8-15.17-1-4.42-7.05-.19-15.13.25-22.18.45-7.27-.38-15.86-.1-23.33.3-7.99,2.87-16.96,1.29-23.67-.38-1.64-2.08-2.22-2.32-4.05-.79-6.07,8.79-6.31,12.58-4.52,1.99.94,2.23,2.99,3.69,3.2,4.09.58,13.22-1.67,17.97-1.57,1.01.02,3.21,1.2,3.68,2.04-.82,8.72-2.48,8.15-3.22,16.91-.42,4.96-1.56,15.4-1.31,19.79.08,1.44.32,2.92,1.06,4.18,14.36-.13,28.55,2.19,42.77,3.62,10.92,1.1,22.37-2.79,23.3,13.24,1.18,20.24-12.78,65.31-23.32,82.92Z"/>
  <path class="cls-1" d="M263.64,308.56c-3.21,2.66-5.8,7.11-10.36,7.47-4,.32-4.11-5.94-7.87-6.67-5.46-1.07-4.17,4.16-7.31,5.61-2.9,1.34-8.46.97-8.91-3.02-.08-.74.67-13.87.83-14.62.51-2.28,2.8-3.18,3.08-5.43-10.12,8.39-19.95,17.27-30.98,24.48-5.73,3.74-11.86,7.13-17.9,10.36-6.41,3.43-18.09,9.98-24.55,11.98-3.41,1.06-3.28-1.57-4.8-2.51-1.85-1.15-5.92-2.02-6.58-4.82-.37-1.57,1.68-3.26,1.81-3.84.62-2.75-1.44-6.58,3.42-7.66l-.34-1.2c-2.53-.83-4.74-3.61-3.94-6.36.09-.32,4.06-4.91,4.32-5.12,1.48-1.19,4.02-.44,6.12-1.19,19.37-6.91,46.24-26.74,60.5-41.66,1.6-1.67,7.53-8.72,8.1-10.46.98-3,.23-12.59.09-16.38-.29-7.82-1.2-15.75-1.97-23.53-2.33-3.86-17.07-.84-19.59-1.72-2.15-.75-5.8-6.44-2.2-8.14l-3.99-5.04c-.53-2.51,2.44-3.27,2.35-4.25-.12-1.33-1.73-2.58-1.74-4.21,0-1.94,1.72-2.76,2.33-4.18.98-2.29,1.75-3.81,2.76-5.99.36-.79-.5-2.32.24-2.67,1.41-.66,17.9.59,20.71.92,4.41.53,17.58,2.39,20.54,4.82,1.03.84,2.04,1.54,2.51,2.87l13.33,122.16Z"/>
  <path class="cls-1" d="M431.76,319.34c-5.61,2.51-13.8,6.5-16.13-1.75l-3.62,2.05c1.78,4.34-3.2,8.41-4.57,3.28l2.09-23.52c-.6-9.34-.42-19.5.96-28.89l-.49-52.92c-9.35-3.61-19.84-1.84-29.67-2.27-7.95-.34-15.89-1.17-23.66-1.73-2.72-.2-8.55,2.31-8.59-3.16l1.57-2.55c-2.4-.55-5.63-2.48-5.68-5.25-.02-1.3,1.6-2.48,1.83-3.79.45-2.62.18-6.27.65-9.04.18-1.03,1.62-1.42,1.71-2.6.13-1.72-1.1-4.19-.63-6.22,26.76-.02,53.53,2.62,80.27,3.82,3.41.15,13.35-1.28,15.37,1.86,2.27,3.53,1.65,28.19,1.68,34.24.12,26.13-1.75,52.21-1.91,78.32-.03,5.43,1.46,13.74.52,18.78-.88,4.76-5.51.59-9.45,4.1l-2.24-2.76Z"/>
  <path class="cls-1" d="M378.83,494.84c-3.34,2.57-10.89-.76-12.87-.43-3.19.54-4.95,2.75-10.25,2.91-1.07.04-9.27-.54-9.73-.7-1.68-.59-1.8-2.96-2.04-4.45-2.79-17.82.31-37.06.03-56.37-.15-9.98-1.51-62.29-2.55-72.56h33.83c-.09.03-.18.06-.28.09l3.85,131.5Z"/>
  <path class="cls-1" d="M386,349.89c1.66,4.25,7.99,7.23,7.36,13.38-3.92,4.8-44.74,14.82-44.77,14.74-15.07,2.77-30.49,7.2-45.4,11.55-3.18.93-4.5,2.86-8.45,2.57-3.27-.24-7.49-3.39-9.09-6.18-2.49-4.33,2.03-8.58,1.1-11.97-1.2-4.42-5.03-2.49-6.43-7.14,5.96-6.72,15-6.33,22.71-8.32,16.72-4.33,33.67-8.76,50.27-13.45,7.97-2.25,13.2-4.24,20.44-7.59,2.95-1.37,11.17-1.44,12.98,1.53,3,4.93-2.44,6.49-.73,10.89Z"/>
  <path class="cls-1" d="M109.46,478.18c-3.88,5.52-9.66,3.56-15.09,3.73-3.09.1-5.03,2.02-8.46.4-.99-.47-1.64-1.93-1.94-2.04-.59-.22-4.36,3.87-6.61.26-3.58-5.74-.58-20.51-.49-27.38.5-34.54,2.49-69.03,3.3-103.54.27-11.41-5.02-16.64,10.78-18.87l.95,3.14c2.67-1.04,5.84,1.25,7.87,1.22,5.95-.09,12.07-4.57,15.07,4.92-2.84,45.99-4.37,92.08-5.38,138.16Z"/>
  <path class="cls-1" d="M159.54,288.01c-.96-.55-1.54-2.13-1.95-3.16-2.99-7.47-.19-11.51.42-18.94,1.54-18.92,2.76-39.36,3.38-58.32.43-13.33-.14-26.04-.1-39.37,1.23-2.67,9.29-2.4,11.91-1.62,1.08.32,1.72,1.83,2.52,1.81,4.77-.12,7.62-2.93,14.04-1.16,7.52,2.07,3.9,9.38,3.69,15.44-.44,12.71-1.15,25.46-1.53,38.15-.5,16.97,1.75,38.97-1.4,55.34-.46,2.41-4.31,8.96-6.87,9.84-7.04,2.43-11.34-1.75-15.2-1.1-3.03.5-5.91,4.83-8.9,3.1Z"/>
  <path class="cls-1" d="M359.16,320.55c-3.08-1.03-4.1-3.15-4.32-6.34-.5-6.98,3.47-22.75,4.16-31.2,1.48-18.12.34-36.37,1.68-54.5,2.45-6.21,8.94-2.47,12.64-3.15,1.9-.35,3.14-1.85,5.21-2.15.9-.13,11.59,1.68,12.56,2.1,5,2.18,3.72,9.02,3.76,13.72.18,20.31-2.16,41.04-2.91,61.33-.36,9.91,4.39,17.68-8.48,19.06-2.93.31-4.16-1.57-5.92-1.62-6.2-.18-12.5,4.71-18.37,2.75Z"/>
  <path class="cls-1" d="M537.36,437.36c-2.44,4.79-12.11,5.11-16.5,2.53-1.17-.69-1.68-2.45-2.52-2.83-.74-.33-11.76,6.09-14.93-.21l-.89-79.88c1.22-4.6,6.05-1.02,9.44-3.21l.89,3.26,15.32-2.27,10.61,4.3-1.42,78.29Z"/>
  <path class="cls-1" d="M242.14,456.08c-1.47-1.08-2.14-2.8-2.24-4.58.72-12.69,2.28-25.56,2.63-38.25.2-7.33-1.84-27.61-.09-32.91,1.36-4.15,6.57-8.89,11.12-8.8,7.59.14,6.89,9.51,14.89,6.5.91-8.95,5.18-3.35,6.25,2.13-2.53,23.51-.44,49.06-2.61,72.46-.08.91-.37,2.23-.76,3.03-.18.37-5.02,4.24-5.34,4.37-.43.18-7.51.61-8.26.52-1.99-.22-3.13-1.9-4.86-2.29-2.94-.67-8.3-.4-10.73-2.18Z"/>
  <path class="cls-1" d="M117.06,515.35c.83,3.3-3.03,13.75-5.4,16.44-7.9,8.97-32.22,10.96-39.28-.35-11.8-18.88-1.66-34.27,19.55-36.8,10.66-1.27,22.72,11.12,25.14,20.7Z"/>
  <g>
    <g>
      <path class="cls-1" d="M77.6,124.96v2.32h5.37l-.24,3.95h-5.13v16.28h-5.01v-16.32h-3.13l.16-3.62,2.97-.24v-1.75c0-4.97,2.77-7.08,7.69-7.08,1.06,0,2.32.12,3.66.41l-.49,4.03c-1.02-.2-2.2-.33-3.38-.33-.98,0-1.71.16-2.28.57-.12.49-.2,1.1-.2,1.79Z"/>
      <path class="cls-1" d="M101.85,138.55h-12.74c.37,3.99,2.32,5.37,5.78,5.37,1.83,0,3.74-.2,6.1-.77l-.29,3.74c-2.2.81-4.64,1.1-6.51,1.1-6.27,0-10.17-3.3-10.17-10.38,0-6.47,3.54-10.87,9.81-10.87,5.45,0,8.34,2.89,8.34,8.18,0,1.18,0,2.24-.33,3.62ZM90.5,131.55c-.61.98-1.1,2.24-1.3,3.83h8.06c-.16-3.3-1.26-4.76-3.66-4.76-.85,0-2.16.16-3.09.94Z"/>
      <path class="cls-1" d="M105.03,146.85l.24-3.91c2.12.69,4.4,1.06,5.98,1.06,1.1,0,2.36-.2,2.93-.53.29-.33.45-.73.45-1.14,0-3.01-9.73-3.5-9.73-9.56,0-3.66,3.5-6.02,8.75-6.02,1.51,0,3.26.2,4.96.65l-.28,3.99c-1.95-.65-3.91-.73-4.92-.73-1.51,0-2.97.24-3.46.57-.28.2-.41.53-.41.85,0,2.52,10.01,3.13,10.01,9.44,0,3.22-2.65,6.39-8.91,6.39-1.99,0-4.03-.37-5.62-1.06Z"/>
      <path class="cls-1" d="M133.6,131.22l-4.35-.04v12.01c.57.12,1.14.12,1.67.12.73,0,1.42-.04,2.56-.24l-.04,3.99c-1.34.49-2.48.69-3.83.69-4.48,0-5.37-1.79-5.37-5.01v-11.6h-2.69l.16-3.78,2.81-.16.61-4.6,4.11-.57v5.21l4.6.04-.24,3.95Z"/>
      <path class="cls-1" d="M138.73,147.5v-16.2l-2.93-.16.16-3.87h7.77v20.23h-5.01ZM138.73,124.43c-.29-1.63-.41-3.01-.49-4.68,1.46-.24,3.46-.28,5.37-.2l-.37,4.88h-4.52Z"/>
      <path class="cls-1" d="M153.1,147.5l-6.59-20.23h5.41l4.44,16.16h.08l4.52-16.16h5.25l-6.8,20.23h-6.31Z"/>
      <path class="cls-1" d="M167.58,141.85c0-2.56,1.38-4.72,3.74-5.74,1.63-.73,4.03-.98,6.15-.98.85,0,1.51,0,2.16.08v-.69c0-2.65-.65-3.54-3.99-3.54-1.87,0-4.52.37-6.71,1.02l.28-4.11c2.28-.73,4.88-1.18,7.24-1.18,5.7,0,8.14,2.08,8.14,7.41v13.39h-4.19l-.49-2.24c-1.55,1.63-3.62,2.56-6.1,2.56-4.64,0-6.23-3.42-6.23-5.98ZM179.51,142.17l.04-3.91c-.73-.04-1.47-.08-2.48-.08-1.42,0-2.93.08-4.07.73-.45.69-.53,1.42-.53,2.16,0,1.67.98,2.73,2.85,2.73,1.22,0,2.77-.37,4.19-1.63Z"/>
      <path class="cls-1" d="M197.91,143.6l-.28,3.83c-.9.2-2.2.37-3.5.37-1.38,0-2.65-.16-3.58-1.02-.85-.81-1.06-2.28-1.06-4.4v-23.08l5.01-.69v22.91c0,.73.04,1.26.08,1.83l3.34.24Z"/>
    </g>
    <path class="cls-1" d="M236.22,147.38c-.04,1.95-.41,3.54-1.18,4.64-2.32,2.97-7.29,4.76-12.25,4.76-8.18,0-12.05-3.74-12.05-10.95,0-2.48.45-5.33,1.3-7.85h4.19c-.57,2.16-.85,4.44-.85,6.27,0,5.05,3.13,7.2,8.26,7.2,3.7,0,6.63-.9,7.94-2.52.12-.28.16-.53.16-.73,0-.37-.04-.69-.12-.98-2.04-.08-3.91-.2-6.63-.45l.73-4.48c4.11.24,7.49.33,9.97.33.81,0,1.22.73,1.22,2.4,0,1.3-.24,2.04-.69,2.36ZM221.69,160.04l-.08,3.83-3.46.16c-.28-1.22-.41-2.52-.41-3.78,1.18-.24,2.65-.37,3.95-.2ZM227.59,160.04l-.12,3.83-3.42.16c-.33-1.22-.45-2.52-.41-3.78,1.14-.24,2.65-.37,3.95-.2Z"/>
    <path class="cls-1" d="M234.51,145.02c0-1.67.37-2.4,1.22-2.4,1.55,0,83.4-.08,84.91-.24v-24.26l4.76-.41v23.12c0,2.32-.28,4.56-.65,5.74-2.4.85-86.21.94-89.02.94-.85,0-1.22-.77-1.22-2.48Z"/>
    <path class="cls-1" d="M345.63,143.56c0,8.42-5.09,13.43-14.28,13.43l-.61-4.4c6.35-.57,9.48-2.08,10.58-5.05-7.57-.2-10.38-1.63-10.38-6.35,0-4.27,2.65-8.79,7.2-8.79,3.78,0,7.49,3.74,7.49,11.15ZM341.68,142.7c-.49-4.03-2.73-5.53-4.4-5.53-2.08,0-2.85,1.67-2.85,2.97,0,1.83,1.83,2.48,7.24,2.56Z"/>
    <path class="cls-1" d="M348.48,142.78c1.59.16,3.13.24,4.4.24,3.17,0,4.88-.28,6.84-1.3l-4.8-13.35,4.88-.45,3.7,10.7c1.14,3.26,2.12,3.99,4.6,3.99.85,0,1.26.73,1.26,2.4s-.41,2.48-1.26,2.48c-3.17,0-5.05-.69-6.39-2.44-2.77,2.08-5.41,2.85-9.4,2.85-1.22,0-2.69-.12-3.83-.45v-4.68Z"/>
    <path class="cls-1" d="M366.92,145.02c0-1.67.37-2.4,1.22-2.4,1.55,0,2.44-.08,3.95-.24v-24.26l4.76-.41v23.12c0,2.32-.28,4.56-.65,5.74-2.4.85-5.25.94-8.06.94-.85,0-1.22-.77-1.22-2.48Z"/>
    <path class="cls-1" d="M383.52,147.5v-29.38l4.84-.41v29.79h-4.84Z"/>
    <path class="cls-1" d="M462.1,145.02c0,1.71-.41,2.48-1.22,2.48-6.43,0-57.39,2.37-57.41-6.84v-22.51l4.8-.45v22.34c.04,2.24,49.48,2.56,52.61,2.56.81,0,1.22.73,1.22,2.4Z"/>
    <path class="cls-1" d="M456.88,144.81c0-1.79,3.14-2.19,3.99-2.19,2.08-.04,3.34-.08,4.76-.28-1.34-1.18-1.95-2.69-1.95-4.19,0-4.31,3.09-8.55,7.28-8.55,3.83,0,7.12,3.09,7.12,7.16,0,2.2-.85,3.91-2.77,5.53,1.1.2,2.24.33,4.03.33h1.22c.81,0,1.22.73,1.22,2.4s-.41,2.48-1.22,2.48c-3.91-.04-7.53-.37-10.62-1.59-2.73,1.14-5.58,1.59-8.95,1.59-.98,0-4.12-.86-4.12-2.69ZM473.94,137.74c0-2.12-1.83-3.46-3.62-3.46s-2.93,1.38-2.93,3.09c0,1.55,1.46,2.73,3.66,3.83,2.08-.98,2.89-1.95,2.89-3.46ZM469.38,126.58c-.33-1.22-.45-2.52-.41-3.78,1.14-.24,2.65-.37,3.95-.2l-.12,3.83-3.42.16Z"/>
    <g>
      <g>
        <path class="cls-1" d="M129.86,77.28h5.25v24.83h-5.25v-10.5h-55.38v10.5h-5.25v-24.83h5.25v10.05h55.38v-10.05Z"/>
        <path class="cls-1" d="M139.92,96.45c0-2.56,1.38-4.72,3.74-5.74,1.63-.73,4.03-.98,6.15-.98.86,0,1.51,0,2.16.08v-.69c0-2.65-.65-3.54-3.99-3.54-1.87,0-4.52.37-6.72,1.02l.29-4.11c2.28-.73,4.88-1.18,7.24-1.18,5.7,0,8.14,2.08,8.14,7.41v13.39h-4.19l-.49-2.24c-1.55,1.63-3.62,2.56-6.1,2.56-4.64,0-6.23-3.42-6.23-5.98ZM151.84,96.78l.04-3.91c-.73-.04-1.47-.08-2.48-.08-1.42,0-2.93.08-4.07.73-.45.69-.53,1.42-.53,2.16,0,1.67.98,2.73,2.85,2.73,1.22,0,2.77-.37,4.19-1.63Z"/>
        <path class="cls-1" d="M163.03,102.11v-16.2l-2.93-.16.16-3.87h7.77v20.23h-5.01ZM163.03,79.03c-.28-1.63-.41-3.01-.49-4.68,1.47-.24,3.46-.28,5.37-.2l-.37,4.88h-4.52Z"/>
        <path class="cls-1" d="M179.88,79.56v2.32h5.37l-.24,3.95h-5.13v16.28h-5.01v-16.32h-3.13l.16-3.62,2.97-.24v-1.75c0-4.97,2.77-7.08,7.69-7.08,1.06,0,2.32.12,3.66.41l-.49,4.03c-1.02-.2-2.2-.33-3.38-.33-.98,0-1.71.16-2.28.57-.12.49-.2,1.1-.2,1.79Z"/>
        <path class="cls-1" d="M186.64,96.45c0-2.56,1.38-4.72,3.74-5.74,1.63-.73,4.03-.98,6.15-.98.86,0,1.51,0,2.16.08v-.69c0-2.65-.65-3.54-3.99-3.54-1.87,0-4.52.37-6.72,1.02l.29-4.11c2.28-.73,4.88-1.18,7.24-1.18,5.7,0,8.14,2.08,8.14,7.41v13.39h-4.19l-.49-2.24c-1.55,1.63-3.62,2.56-6.1,2.56-4.64,0-6.23-3.42-6.23-5.98ZM198.57,96.78l.04-3.91c-.73-.04-1.47-.08-2.48-.08-1.42,0-2.93.08-4.07.73-.45.69-.53,1.42-.53,2.16,0,1.67.98,2.73,2.85,2.73,1.22,0,2.77-.37,4.19-1.63Z"/>
        <path class="cls-1" d="M217.49,93.93v-8.91h-2.81l-.41-4.4c1.18-.04,2.77-.08,3.79-.08,3.7,0,4.8.69,4.8,4.03v9.36h-5.37Z"/>
        <path class="cls-1" d="M226.81,102.11l1.63-15.91-1.71-5.53,4.8-.2.77,2.44c3.26-1.87,5.82-2.36,7.94-2.36,4.72,0,6.55,1.87,6.55,7.85v13.72h-10.58l.16-4.6,5.05-.12v-7.98c0-1.46-.08-2.81-.2-4.03-.57-.24-1.47-.33-2.52-.33-1.46,0-3.38.33-5.25,1.18l-1.26,15.87h-5.37Z"/>
        <path class="cls-1" d="M253.23,102.11v-17.09h-2.73l-.37-4.4c1.18-.04,2.73-.08,3.87-.08,3.58,0,4.6.81,4.6,4.07v17.5h-5.37Z"/>
        <path class="cls-1" d="M263.08,102.11c.04-1.87.24-4.52.49-6.72.45-3.91,1.3-6.59,3.34-8.55v-.08l-4.44-5.74.08-.33,5.54-.28,7.77,10.58.08-.04c.81-1.55,1.14-4.23,1.26-6.67.04-1.22.08-2.69.04-3.62h5.21c-.04,1.1-.12,2.77-.24,4.15-.37,3.95-1.38,7.08-3.5,9.36l4.96,7.49v.45h-5.62l-8.38-11.92-.08.04c-.85,1.75-.98,4.19-1.14,6.72-.16,2.2-.08,2.44-.24,5.17h-5.13Z"/>
        <path class="cls-1" d="M288.96,102.11l7.61-17.01-.04-.08h-10.58l-.45-4.4-.24-6.06,4.84-.49.33,6.59h11.19l.37,3.7-7.33,17.74h-5.7Z"/>
        <path class="cls-1" d="M304.47,102.11v-4.6h4.84v-12.49h-3.95l-.28-4.4c1.14-.04,2.08-.08,3.5-.08,5.33,0,6.11.53,6.11,6.8v14.77h-10.22Z"/>
        <path class="cls-1" d="M321.03,93.93v-8.91h-2.81l-.41-4.4c1.18-.04,2.77-.08,3.79-.08,3.7,0,4.8.69,4.8,4.03v9.36h-5.37Z"/>
        <path class="cls-1" d="M345.45,97.55l2.89.2v4.35h-18.44v-4.6h10.17v-9.89c0-1.06-.04-1.83-.16-2.56-.9-.08-1.91-.12-3.26-.12-1.91,0-4.48.04-6.35.2l-.41-4.4c2.44-.2,4.84-.28,6.88-.28,6.8,0,8.67,1.02,8.67,7.41v9.69Z"/>
        <path class="cls-1" d="M370.12,88.11v14h-5.37v-12.62c0-1.67,0-3.01-.16-4.31-1.38-.16-3.13-.2-5.05-.2-2.36,0-5.33.12-7.98.33l-.37-4.52c2.56-.2,5.54-.33,8.3-.33,8.42,0,10.62.98,10.62,7.65ZM351.72,97.3c0-2.03.12-4.6.45-6.96,1.47-.16,3.26-.24,4.96-.24v12.01h-5.41v-4.8Z"/>
        <path class="cls-1" d="M427.61,90.96c.2,3.09.29,5.94.29,7.77,0,3.62-.33,6.02-1.02,7.49-2.12,2.03-31.08,3.05-35.32,3.05-6.8,0-10.58-3.42-10.58-9.89,0-1.75.28-3.91,1.18-6.23h4.03c-.37,1.63-.61,3.17-.61,4.52,0,4.48,1.91,6.31,6.8,6.31,2.28,0,29.21-.33,30.92-1.1v-1.22c0-2.48-.29-6.88-.53-10.22l4.84-.49ZM410.05,88.84l-3.54.2c-.33-1.26-.45-2.56-.41-3.91,1.18-.2,2.69-.33,4.03-.16l-.08,3.87Z"/>
        <path class="cls-1" d="M443.16,99.62c0,1.71-.41,2.48-1.22,2.48-6.43,0-8.75-1.59-8.75-6.84v-22.51l4.8-.45v22.34c.04,2.24.81,2.56,3.95,2.56.81,0,1.22.73,1.22,2.4Z"/>
        <path class="cls-1" d="M466.76,88.84l-.65,4.44c-9.85,4.52-15.14,8.83-24.17,8.83-.85,0-1.22-.77-1.22-2.48s.37-2.4,1.22-2.4c7.41,0,11.23-1.67,18.48-4.84-3.54-.98-6.76-2.48-10.42-2.48-1.34,0-3.34.28-5.33,1.38l.65-4.72c1.59-.81,3.83-1.1,5.37-1.1,5.41,0,10.01,3.13,16.08,3.38ZM457.04,103.08l-.12,3.83-3.42.16c-.33-1.22-.45-2.52-.41-3.78,1.14-.24,2.64-.37,3.95-.2Z"/>
        <path class="cls-1" d="M481.91,99.71c0,1.83-.37,2.4-1.47,2.4-1.3,0-2.65-.33-3.62-1.02-1.22,6.27-5.37,10.38-10.7,10.38-.24,0-.45,0-.69-.08l-.57-4.15c4.92-1.22,7.98-4.35,8.34-9.32-.37-2.08-.81-3.87-1.38-5.86l4.52-1.22c.45,2.08.69,4.11,1.18,5.05.53,1.06,1.38,1.34,3.17,1.34.86,0,1.22.73,1.22,2.48Z"/>
        <path class="cls-1" d="M500.22,97.22c.81,0,1.22.73,1.22,2.4s-.45,2.48-1.22,2.48c-.98,0-1.18.04-2.03-.08.94.57,1.59,1.63,1.59,2.65,0,1.51-.12,3.01-.85,4.15-1.02,1.59-3.3,2.89-6.67,2.89-4.84,0-8.59-3.17-9.48-9.6h-2.08c-.85,0-1.22-.77-1.22-2.48s.37-2.4,1.22-2.4h1.95c.61-5.86,4.11-11.64,8.83-11.64,3.87,0,6.35,2.81,6.35,6.31,0,2.52-1.22,4.23-3.01,5.62l2.93-.28h2.48ZM486.34,97.26c3.87-.33,7.24-1.67,7.24-4.19,0-1.63-1.26-2.48-2.69-2.48-2.12,0-4.11,2.77-4.56,6.67ZM496.44,105.48c-.33-1.75-3.3-4.03-6.72-4.19-1.02.2-2.03.37-3.13.45.86,3.26,3.13,5.09,6.19,5.09,1.79,0,3.17-.49,3.66-1.34Z"/>
        <path class="cls-1" d="M519.47,96.73c0,2.4-.73,4.27-1.59,5.21-.73.49-2.03.61-3.38.61-3.05,0-5.74-.81-9.52-2.93-1.47,2.2-2.97,2.48-4.76,2.48-.85,0-1.22-.77-1.22-2.48s.37-2.4,1.22-2.4c1.02,0,1.34-.16,1.91-.57.37-.45.77-1.38,1.26-2.6,2.08-4.88,3.91-7.49,8.22-7.49,4.56,0,7.85,4.64,7.85,10.17ZM515.28,96.78c0-2.65-2.03-5.29-4.48-5.29-1.63,0-2.52.81-3.79,3.87,2.85,1.42,5.13,2.16,7.24,2.16.45,0,.73-.04.85-.12.08-.12.16-.37.16-.61Z"/>
      </g>
      <g>
        <path class="cls-1" d="M80.48,35.47l-3.09.16v17.09l3.09.16v3.7h-11.44v-3.7l3.09-.16v-17.09l-3.09-.16v-3.7h11.44v3.7Z"/>
        <path class="cls-1" d="M84.55,56.59v-19.98l4.68-.65.16,2.44c2.36-1.55,4.48-2.44,6.96-2.44,4.03,0,5.98,1.99,5.98,6.31v14.33h-5.01v-13.15c0-2.16-1.06-3.17-3.26-3.17-1.14,0-2.65.28-4.52,1.18v15.14h-5.01Z"/>
        <path class="cls-1" d="M117.97,40.31l-4.35-.04v12.01c.57.12,1.14.12,1.67.12.73,0,1.42-.04,2.56-.24l-.04,3.99c-1.34.49-2.48.69-3.83.69-4.48,0-5.37-1.79-5.37-5.01v-11.6h-2.69l.16-3.78,2.81-.16.61-4.6,4.11-.57v5.21l4.6.04-.24,3.95Z"/>
        <path class="cls-1" d="M138.52,47.63h-12.74c.37,3.99,2.32,5.37,5.78,5.37,1.83,0,3.74-.2,6.1-.77l-.29,3.74c-2.2.81-4.64,1.1-6.51,1.1-6.27,0-10.17-3.3-10.17-10.38,0-6.47,3.54-10.87,9.81-10.87,5.45,0,8.34,2.89,8.34,8.18,0,1.18,0,2.24-.33,3.62ZM127.16,40.63c-.61.98-1.1,2.24-1.3,3.83h8.06c-.16-3.3-1.26-4.76-3.66-4.76-.85,0-2.16.16-3.09.94Z"/>
        <path class="cls-1" d="M142.87,56.59v-19.98l4.76-.65.08,2.93c1.71-1.99,3.17-2.85,4.88-2.85.73,0,1.46.16,2.28.45l-.28,4.52c-.85-.16-1.63-.24-2.4-.24-1.46,0-2.85.33-4.31,1.47v14.37h-5.01Z"/>
        <path class="cls-1" d="M157.89,56.59v-19.98l4.68-.65.16,2.44c2.36-1.55,4.48-2.44,6.96-2.44,4.03,0,5.98,1.99,5.98,6.31v14.33h-5.01v-13.15c0-2.16-1.06-3.17-3.26-3.17-1.14,0-2.65.28-4.52,1.18v15.14h-5.01Z"/>
        <path class="cls-1" d="M179.71,50.93c0-2.56,1.38-4.72,3.74-5.74,1.63-.73,4.03-.98,6.15-.98.85,0,1.51,0,2.16.08v-.69c0-2.65-.65-3.54-3.99-3.54-1.87,0-4.52.37-6.71,1.02l.28-4.11c2.28-.73,4.88-1.18,7.24-1.18,5.7,0,8.14,2.08,8.14,7.41v13.39h-4.19l-.49-2.24c-1.55,1.63-3.62,2.56-6.1,2.56-4.64,0-6.23-3.42-6.23-5.98ZM191.63,51.26l.04-3.91c-.73-.04-1.47-.08-2.48-.08-1.42,0-2.93.08-4.07.73-.45.69-.53,1.42-.53,2.16,0,1.67.98,2.73,2.85,2.73,1.22,0,2.77-.37,4.19-1.63Z"/>
        <path class="cls-1" d="M212.35,40.31l-4.35-.04v12.01c.57.12,1.14.12,1.67.12.73,0,1.42-.04,2.56-.24l-.04,3.99c-1.34.49-2.48.69-3.83.69-4.48,0-5.37-1.79-5.37-5.01v-11.6h-2.69l.16-3.78,2.81-.16.61-4.6,4.11-.57v5.21l4.6.04-.24,3.95Z"/>
        <path class="cls-1" d="M217.48,56.59v-16.2l-2.93-.16.16-3.87h7.77v20.23h-5.01ZM217.48,33.51c-.28-1.63-.41-3.01-.49-4.68,1.46-.24,3.46-.28,5.37-.2l-.37,4.88h-4.52Z"/>
        <path class="cls-1" d="M226.59,47.06c0-7,4.35-11.23,10.54-11.23,5.54,0,9.44,3.83,9.44,10.13,0,6.92-4.31,11.15-10.46,11.15-5.62,0-9.52-3.74-9.52-10.05ZM240.27,51.7c.65-1.18,1.14-2.85,1.14-5.29,0-4.92-2.16-6.55-4.84-6.55-1.51,0-2.48.41-3.46,1.26-.94,1.34-1.38,3.09-1.38,5.29,0,4.68,2.08,6.63,5.05,6.63,1.3,0,2.56-.41,3.5-1.34Z"/>
        <path class="cls-1" d="M250.69,56.59v-19.98l4.68-.65.16,2.44c2.36-1.55,4.48-2.44,6.96-2.44,4.03,0,5.98,1.99,5.98,6.31v14.33h-5.01v-13.15c0-2.16-1.06-3.17-3.26-3.17-1.14,0-2.65.28-4.52,1.18v15.14h-5.01Z"/>
        <path class="cls-1" d="M272.5,50.93c0-2.56,1.38-4.72,3.74-5.74,1.63-.73,4.03-.98,6.15-.98.85,0,1.51,0,2.16.08v-.69c0-2.65-.65-3.54-3.99-3.54-1.87,0-4.52.37-6.71,1.02l.28-4.11c2.28-.73,4.88-1.18,7.24-1.18,5.7,0,8.14,2.08,8.14,7.41v13.39h-4.19l-.49-2.24c-1.55,1.63-3.62,2.56-6.1,2.56-4.64,0-6.23-3.42-6.23-5.98ZM284.43,51.26l.04-3.91c-.73-.04-1.47-.08-2.48-.08-1.42,0-2.93.08-4.07.73-.45.69-.53,1.42-.53,2.16,0,1.67.98,2.73,2.85,2.73,1.22,0,2.77-.37,4.19-1.63Z"/>
        <path class="cls-1" d="M302.83,52.68l-.28,3.83c-.9.2-2.2.37-3.5.37-1.38,0-2.65-.16-3.58-1.02-.85-.81-1.06-2.28-1.06-4.4v-23.08l5.01-.69v22.91c0,.73.04,1.26.08,1.83l3.34.24Z"/>
        <path class="cls-1" d="M332.09,42.59v14h-5.37v-12.62c0-1.67,0-3.01-.16-4.31-1.38-.16-3.13-.2-5.05-.2-2.36,0-5.33.12-7.98.33l-.37-4.52c2.56-.2,5.54-.33,8.3-.33,8.42,0,10.62.98,10.62,7.65ZM313.69,51.79c0-2.03.12-4.6.45-6.96,1.47-.16,3.26-.24,4.97-.24v12.01h-5.41v-4.8Z"/>
        <path class="cls-1" d="M346.17,35.1c8.18,0,9.12,1.02,9.12,10.09v1.59c0,6.88-2.73,9.81-10.05,9.81h-7.73v-4.35h6.8c4.92,0,5.58-1.38,5.58-5.9v-1.51c0-2.16-.04-3.91-.24-5.33-.77-.08-1.87-.12-3.66-.12h-4.23v4.68l3.58.12v3.42c-1.3.12-2.73.16-4.11.16-3.01,0-4.44-.57-4.44-4.23v-9.81l4.48-.45.33,1.83h4.6Z"/>
        <path class="cls-1" d="M360.86,48.41v-8.91h-2.81l-.41-4.4c1.18-.04,2.77-.08,3.78-.08,3.7,0,4.8.69,4.8,4.03v9.36h-5.37Z"/>
        <path class="cls-1" d="M391.1,42.51v14.08h-5.37v-14.33c0-.9,0-1.79-.08-2.6-1.3-.2-3.13-.24-5.17-.24-.81,0-1.79,0-2.81.04v17.13h-5.37v-9.08c0-3.46.08-5.74.37-7.98-.9.04-1.79.04-2.6.08l-.37-4.35c3.22-.24,6.76-.33,10.09-.33,9.93,0,11.31.81,11.31,7.57Z"/>
        <path class="cls-1" d="M405.76,56.59l7.61-17.01-.04-.08h-10.58l-.45-4.4-.24-6.06,4.84-.49.33,6.59h11.19l.37,3.7-7.33,17.74h-5.7Z"/>
        <path class="cls-1" d="M437.14,52.03l2.89.2v4.35h-18.44v-4.6h10.17v-9.89c0-1.06-.04-1.83-.16-2.56-.9-.08-1.91-.12-3.26-.12-1.91,0-4.48.04-6.35.2l-.41-4.4c2.44-.2,4.84-.28,6.88-.28,6.8,0,8.67,1.02,8.67,7.41v9.69Z"/>
        <path class="cls-1" d="M443.24,48.41v-8.91h-2.81l-.41-4.4c1.18-.04,2.77-.08,3.78-.08,3.7,0,4.8.69,4.8,4.03v9.36h-5.37Z"/>
        <path class="cls-1" d="M454.64,56.47c-.28-1.71-.45-3.09-.65-4.68l-1.83-16.65,5.13-.16,1.79,17.22c.65.08,1.3.08,1.75.08,5.17,0,6.96-2.52,6.96-8.67,0-1.79-.16-3.22-.57-3.99-.24-.12-.57-.12-1.14-.12-1.18.04-2.6.24-4.19.61l-.53-4.72c1.91-.24,3.78-.45,5.49-.45,5.25,0,6.47,2.65,6.47,8.18,0,9.32-4.23,13.67-13.39,13.67-1.42,0-3.5-.12-5.29-.33Z"/>
        <path class="cls-1" d="M496.92,43.2c0,9.16-4.56,13.55-12.74,13.55-2.24,0-3.54-.08-5.49-.37-.2-1.47-.33-2.97-.49-4.44l-1.3-12.53c-.2-2.04-.33-3.7-.45-5.62l4.56-.45.45,1.83c2.08-.12,4.44-.16,6.27-.12,7.61.08,9.2,1.02,9.2,8.14ZM491.43,43.04c0-1.22-.04-2.24-.16-3.42-1.18-.12-2.32-.16-4.19-.16s-3.34.04-5.09.16l1.22,12.58c.57.04,1.14.08,1.59.08,4.68,0,6.63-2.44,6.63-9.24Z"/>
        <path class="cls-1" d="M509.79,35.1c8.18,0,9.12,1.02,9.12,10.09v1.59c0,6.88-2.73,9.81-10.05,9.81h-7.73v-4.35h6.8c4.92,0,5.58-1.38,5.58-5.9v-1.51c0-2.16-.04-3.91-.24-5.33-.77-.08-1.87-.12-3.66-.12h-4.23v4.68l3.58.12v3.42c-1.3.12-2.73.16-4.11.16-3.01,0-4.44-.57-4.44-4.23v-9.81l4.48-.45.33,1.83h4.6Z"/>
      </g>
      <path class="cls-1" d="M495.98,145.02c0,1.71-.41,2.48-1.22,2.48-3.58,0-6.06-.81-7.57-2.6-1.42,1.63-3.83,2.6-6.88,2.6-.85,0-1.22-.77-1.22-2.48s.37-2.4,1.22-2.4c2.12,0,3.91-.41,4.88-1.26.12-.61.16-1.47.16-2.85v-4.15l4.48-.41v4.11c0,3.66,1.06,4.56,4.92,4.56.81,0,1.22.73,1.22,2.4ZM486.13,150.76l-.12,3.83-3.42.16c-.33-1.22-.45-2.52-.41-3.78,1.14-.24,2.65-.37,3.95-.2ZM491.99,150.76l-.08,3.83-3.46.16c-.28-1.22-.41-2.52-.41-3.78,1.18-.24,2.65-.37,3.95-.2Z"/>
    </g>
    <path class="cls-1" d="M519.85,134.24l-.65,4.44c-9.85,4.52-15.14,8.83-24.17,8.83-.85,0-1.22-.77-1.22-2.48s.37-2.4,1.22-2.4c7.41,0,11.23-1.67,18.48-4.84-3.54-.98-6.76-2.48-10.42-2.48-1.34,0-3.34.28-5.33,1.38l.65-4.72c1.59-.81,3.83-1.1,5.37-1.1,5.41,0,10.01,3.13,16.08,3.38Z"/>
  </g>
  <path class="cls-1" d="M220.72,368.3h.08c6.05-.67,9.07-5.43,9.48-11.27.63-8.54-6.37-4.8-7.54-5.97-2.23-2.23,5.99-11.02,2.97-16.49-2.41-4.37-5.04-1.45-7.95-.85-20.87,4.22-41.9,11.96-62.72,15.63-6.89,1.21-19.31,3.94-24.53,7.17-2.46,1.53-3.09,3.6-4.62,4.79-1.75,1.37-2.46.91-3.78,3.12l4.57,150.2c1.04,1.36,10.57,3.5,12.59,3.64,17.91,1.23,36.43.53,54.63,1.21,2.12.08,6.2-.43,6.54-.37,1.67.31,2.21,2.21,3.52,2.81.82.38,14.5-.09,15.7-.43,1.83-.51,5.33-3.9,6.26-5.57,2.77-4.95-.06-4.9-.53-7.93-3.39-21.71-3.64-52.76-4.55-75.41-.35-8.82-.2-54.28-1.44-63.07l.79-1.12.52-.09ZM158.98,486.4c-3.34-1.15-3.07-14.4-3.24-17.85-.93-19.23-2.37-64.54-1.46-84.61l.15-.04,24.21-8.81.51-.08,1.87,1.06,2.71,111.75-24.76-1.41Z"/>
</svg>