<?xml version="1.0" encoding="UTF-8"?>
<svg viewBox="26.15 176.90 542.97 488.09" id="Layer_1" data-name="Layer 1" xmlns="http://www.w3.org/2000/svg">
  <path d="M291.05,648.04l-15.26-16.54-50.95-55.14L58.24,395.95l-14.08-15.67c-2.43-2.7-2.57-6.67-2.64-10.28l19.4-20.21,8.7-9.36,6.61-7.02,9.81-10.21,17.64-18.03,31.23-31.63,79.27-79.57c.61-.61.71-.42.64.19l-.34,21.76-.43,53.63-.39,64.46-.3,53.2c-.01,1.86,2.27,1.25,3.16,1.29l21.06,1.01,74.44,3.21,233.35,9.78-29.82,29.64-210.23,210-6.31,5.93c-1.93,1.81-5.82,2.32-7.99-.03ZM451,450.19c-7.23,5.08-11.84,11.85-18.03,17.48l-84.1,87.57-46.39,48.45c-3.74,2.31-8.12,1.82-11.39-1.15l-82.54-87.53-88.64-93.88-26.38-27.72c-.27-.02-.9.13-1.17.29l22.08,23.7,84.81,90.1,91.8,97.38c4.49,2.98,9.73,2.96,13.47-.75l47.8-49.85,78.04-81.65,20.65-22.44ZM234.64,521.16l.7-.18-14.4-16.38-26.54-29.08-17.95-18.89c-2.48-2.61-4.34-5.64-7.83-7.39l5.63,6.37,16.76,17.71,29.92,32.48,13.71,15.35Z"/>
  <path d="M311.68,390.9l-80.59-3.27-15.36-.44c-.5-.01-.45-1.33-.45-1.98l.39-65.62.4-81.25v-45.57c1.89-.63,4.02-.79,5.83.25l46.71,26.92,96.82,56.91,185.43,109.11c1.84,1.08,2.74,3.19,2.87,4.73.17,2.07-.59,3.94-2.04,5.4l-4.65,4.7-235.36-9.89Z"/>
</svg>